<mxfile host="Electron" agent="Mozilla/5.0 (Windows NT 10.0; Win64; x64) AppleWebKit/537.36 (KHTML, like Gecko) draw.io/24.7.17 Chrome/128.0.6613.36 Electron/32.0.1 Safari/537.36" version="24.7.17">
  <diagram name="Страница — 1" id="aamezZmQvxMuSM1Q3HjA">
    <mxGraphModel dx="2300" dy="1230" grid="1" gridSize="10" guides="1" tooltips="1" connect="1" arrows="1" fold="1" page="1" pageScale="1" pageWidth="827" pageHeight="1169" math="0" shadow="0">
      <root>
        <mxCell id="0" />
        <mxCell id="1" parent="0" />
        <mxCell id="XFiRcjkOXk-1" value="Main" style="rounded=1;whiteSpace=wrap;html=1;" parent="1" vertex="1">
          <mxGeometry x="40" y="40" width="80" height="40" as="geometry" />
        </mxCell>        <mxCell id="XFiRcjkOXk-2" value="Default_value" style="rounded=0;whiteSpace=wrap;html=1;" parent="1" vertex="1">
          <mxGeometry x="120" y="120" width="160" height="40" as="geometry" />
        </mxCell>        <mxCell id="XFiRcjkOXk-3" value="" style="rounded=0;whiteSpace=wrap;html=1;" parent="1" vertex="1">
          <mxGeometry x="620" y="120" width="40" height="40" as="geometry" />
        </mxCell>        <mxCell id="XFiRcjkOXk-4" value="Функция для сброса уставок до стандартных" style="text;html=1;align=center;verticalAlign=middle;whiteSpace=wrap;rounded=0;strokeColor=none;fillColor=default;" vertex="1" parent="1">
          <mxGeometry x="630" y="119" width="160" height="42" as="geometry" />
        </mxCell>        <mxCell id="XFiRcjkOXk-5" value="" style="endArrow=none;html=1;rounded=0;" edge="1" parent="1">
          <mxGeometry width="50" height="50" relative="1" as="geometry">
            <mxPoint x="80" y="140" as="sourcePoint" />
            <mxPoint x="120" y="140" as="targetPoint" />
          </mxGeometry>
        </mxCell>        <mxCell id="XFiRcjkOXk-6" value="" style="endArrow=none;html=1;rounded=0;" edge="1" parent="1">
          <mxGeometry width="50" height="50" relative="1" as="geometry">
            <mxPoint x="280" y="140" as="sourcePoint" />
            <mxPoint x="620" y="140" as="targetPoint" />
          </mxGeometry>
        </mxCell>        <mxCell id="XFiRcjkOXk-7" value="Persist" style="rounded=0;whiteSpace=wrap;html=1;" parent="1" vertex="1">
          <mxGeometry x="120" y="200" width="160" height="40" as="geometry" />
        </mxCell>        <mxCell id="XFiRcjkOXk-8" value="" style="rounded=0;whiteSpace=wrap;html=1;" parent="1" vertex="1">
          <mxGeometry x="620" y="200" width="40" height="40" as="geometry" />
        </mxCell>        <mxCell id="XFiRcjkOXk-9" value="Функция для сохранения уставок в памяти ПЛК" style="text;html=1;align=center;verticalAlign=middle;whiteSpace=wrap;rounded=0;strokeColor=none;fillColor=default;" vertex="1" parent="1">
          <mxGeometry x="630" y="199" width="160" height="42" as="geometry" />
        </mxCell>        <mxCell id="XFiRcjkOXk-10" value="" style="endArrow=none;html=1;rounded=0;" edge="1" parent="1">
          <mxGeometry width="50" height="50" relative="1" as="geometry">
            <mxPoint x="80" y="220" as="sourcePoint" />
            <mxPoint x="120" y="220" as="targetPoint" />
          </mxGeometry>
        </mxCell>        <mxCell id="XFiRcjkOXk-11" value="" style="endArrow=none;html=1;rounded=0;" edge="1" parent="1">
          <mxGeometry width="50" height="50" relative="1" as="geometry">
            <mxPoint x="280" y="220" as="sourcePoint" />
            <mxPoint x="620" y="220" as="targetPoint" />
          </mxGeometry>
        </mxCell>        <mxCell id="XFiRcjkOXk-12" value="IM" style="rounded=0;whiteSpace=wrap;html=1;" parent="1" vertex="1">
          <mxGeometry x="120" y="280" width="160" height="40" as="geometry" />
        </mxCell>        <mxCell id="XFiRcjkOXk-13" value="" style="rounded=0;whiteSpace=wrap;html=1;" parent="1" vertex="1">
          <mxGeometry x="620" y="280" width="40" height="40" as="geometry" />
        </mxCell>        <mxCell id="XFiRcjkOXk-14" value="Папка с функциями управления механизмами" style="text;html=1;align=center;verticalAlign=middle;whiteSpace=wrap;rounded=0;strokeColor=none;fillColor=default;" vertex="1" parent="1">
          <mxGeometry x="630" y="279" width="160" height="42" as="geometry" />
        </mxCell>        <mxCell id="XFiRcjkOXk-15" value="" style="endArrow=none;html=1;rounded=0;" edge="1" parent="1">
          <mxGeometry width="50" height="50" relative="1" as="geometry">
            <mxPoint x="80" y="300" as="sourcePoint" />
            <mxPoint x="120" y="300" as="targetPoint" />
          </mxGeometry>
        </mxCell>        <mxCell id="XFiRcjkOXk-16" value="" style="endArrow=none;html=1;rounded=0;" edge="1" parent="1">
          <mxGeometry width="50" height="50" relative="1" as="geometry">
            <mxPoint x="280" y="300" as="sourcePoint" />
            <mxPoint x="620" y="300" as="targetPoint" />
          </mxGeometry>
        </mxCell>        <mxCell id="XFiRcjkOXk-17" value="ALL_IM" style="rounded=0;whiteSpace=wrap;html=1;" parent="1" vertex="1">
          <mxGeometry x="240" y="360" width="160" height="40" as="geometry" />
        </mxCell>        <mxCell id="XFiRcjkOXk-18" value="" style="rounded=0;whiteSpace=wrap;html=1;" parent="1" vertex="1">
          <mxGeometry x="620" y="360" width="40" height="40" as="geometry" />
        </mxCell>        <mxCell id="XFiRcjkOXk-19" value="Функции управления механизмами" style="text;html=1;align=center;verticalAlign=middle;whiteSpace=wrap;rounded=0;strokeColor=none;fillColor=default;" vertex="1" parent="1">
          <mxGeometry x="630" y="359" width="160" height="42" as="geometry" />
        </mxCell>        <mxCell id="XFiRcjkOXk-20" value="" style="endArrow=none;html=1;rounded=0;" edge="1" parent="1">
          <mxGeometry width="50" height="50" relative="1" as="geometry">
            <mxPoint x="200" y="380" as="sourcePoint" />
            <mxPoint x="240" y="380" as="targetPoint" />
          </mxGeometry>
        </mxCell>        <mxCell id="XFiRcjkOXk-21" value="" style="endArrow=none;html=1;rounded=0;" edge="1" parent="1">
          <mxGeometry width="50" height="50" relative="1" as="geometry">
            <mxPoint x="400" y="380" as="sourcePoint" />
            <mxPoint x="620" y="380" as="targetPoint" />
          </mxGeometry>
        </mxCell>        <mxCell id="XFiRcjkOXk-22" value="BLOK_SINH_DVUH_REG" style="rounded=0;whiteSpace=wrap;html=1;" parent="1" vertex="1">
          <mxGeometry x="240" y="440" width="160" height="40" as="geometry" />
        </mxCell>        <mxCell id="XFiRcjkOXk-23" value="" style="rounded=0;whiteSpace=wrap;html=1;" parent="1" vertex="1">
          <mxGeometry x="620" y="440" width="40" height="40" as="geometry" />
        </mxCell>        <mxCell id="XFiRcjkOXk-24" value="Функция синхронизации регуляторов" style="text;html=1;align=center;verticalAlign=middle;whiteSpace=wrap;rounded=0;strokeColor=none;fillColor=default;" vertex="1" parent="1">
          <mxGeometry x="630" y="439" width="160" height="42" as="geometry" />
        </mxCell>        <mxCell id="XFiRcjkOXk-25" value="" style="endArrow=none;html=1;rounded=0;" edge="1" parent="1">
          <mxGeometry width="50" height="50" relative="1" as="geometry">
            <mxPoint x="200" y="460" as="sourcePoint" />
            <mxPoint x="240" y="460" as="targetPoint" />
          </mxGeometry>
        </mxCell>        <mxCell id="XFiRcjkOXk-26" value="" style="endArrow=none;html=1;rounded=0;" edge="1" parent="1">
          <mxGeometry width="50" height="50" relative="1" as="geometry">
            <mxPoint x="400" y="460" as="sourcePoint" />
            <mxPoint x="620" y="460" as="targetPoint" />
          </mxGeometry>
        </mxCell>        <mxCell id="XFiRcjkOXk-27" value="CHASTOTA_M1_M2" style="rounded=0;whiteSpace=wrap;html=1;" parent="1" vertex="1">
          <mxGeometry x="240" y="520" width="160" height="40" as="geometry" />
        </mxCell>        <mxCell id="XFiRcjkOXk-28" value="" style="rounded=0;whiteSpace=wrap;html=1;" parent="1" vertex="1">
          <mxGeometry x="620" y="520" width="40" height="40" as="geometry" />
        </mxCell>        <mxCell id="XFiRcjkOXk-29" value="Функция регулирования частоты" style="text;html=1;align=center;verticalAlign=middle;whiteSpace=wrap;rounded=0;strokeColor=none;fillColor=default;" vertex="1" parent="1">
          <mxGeometry x="630" y="519" width="160" height="42" as="geometry" />
        </mxCell>        <mxCell id="XFiRcjkOXk-30" value="" style="endArrow=none;html=1;rounded=0;" edge="1" parent="1">
          <mxGeometry width="50" height="50" relative="1" as="geometry">
            <mxPoint x="200" y="540" as="sourcePoint" />
            <mxPoint x="240" y="540" as="targetPoint" />
          </mxGeometry>
        </mxCell>        <mxCell id="XFiRcjkOXk-31" value="" style="endArrow=none;html=1;rounded=0;" edge="1" parent="1">
          <mxGeometry width="50" height="50" relative="1" as="geometry">
            <mxPoint x="400" y="540" as="sourcePoint" />
            <mxPoint x="620" y="540" as="targetPoint" />
          </mxGeometry>
        </mxCell>        <mxCell id="XFiRcjkOXk-32" value="MP1_Upr" style="rounded=0;whiteSpace=wrap;html=1;" parent="1" vertex="1">
          <mxGeometry x="240" y="600" width="160" height="40" as="geometry" />
        </mxCell>        <mxCell id="XFiRcjkOXk-33" value="" style="rounded=0;whiteSpace=wrap;html=1;" parent="1" vertex="1">
          <mxGeometry x="620" y="600" width="40" height="40" as="geometry" />
        </mxCell>        <mxCell id="XFiRcjkOXk-34" value="Функция управления приточным вентилятором MP1" style="text;html=1;align=center;verticalAlign=middle;whiteSpace=wrap;rounded=0;strokeColor=none;fillColor=default;" vertex="1" parent="1">
          <mxGeometry x="630" y="599" width="160" height="42" as="geometry" />
        </mxCell>        <mxCell id="XFiRcjkOXk-35" value="" style="endArrow=none;html=1;rounded=0;" edge="1" parent="1">
          <mxGeometry width="50" height="50" relative="1" as="geometry">
            <mxPoint x="200" y="620" as="sourcePoint" />
            <mxPoint x="240" y="620" as="targetPoint" />
          </mxGeometry>
        </mxCell>        <mxCell id="XFiRcjkOXk-36" value="" style="endArrow=none;html=1;rounded=0;" edge="1" parent="1">
          <mxGeometry width="50" height="50" relative="1" as="geometry">
            <mxPoint x="400" y="620" as="sourcePoint" />
            <mxPoint x="620" y="620" as="targetPoint" />
          </mxGeometry>
        </mxCell>        <mxCell id="XFiRcjkOXk-37" value="MRQ1_Upr" style="rounded=0;whiteSpace=wrap;html=1;" parent="1" vertex="1">
          <mxGeometry x="240" y="680" width="160" height="40" as="geometry" />
        </mxCell>        <mxCell id="XFiRcjkOXk-38" value="" style="rounded=0;whiteSpace=wrap;html=1;" parent="1" vertex="1">
          <mxGeometry x="620" y="680" width="40" height="40" as="geometry" />
        </mxCell>        <mxCell id="XFiRcjkOXk-39" value="Функция управления рекуператором RQ1" style="text;html=1;align=center;verticalAlign=middle;whiteSpace=wrap;rounded=0;strokeColor=none;fillColor=default;" vertex="1" parent="1">
          <mxGeometry x="630" y="679" width="160" height="42" as="geometry" />
        </mxCell>        <mxCell id="XFiRcjkOXk-40" value="" style="endArrow=none;html=1;rounded=0;" edge="1" parent="1">
          <mxGeometry width="50" height="50" relative="1" as="geometry">
            <mxPoint x="200" y="700" as="sourcePoint" />
            <mxPoint x="240" y="700" as="targetPoint" />
          </mxGeometry>
        </mxCell>        <mxCell id="XFiRcjkOXk-41" value="" style="endArrow=none;html=1;rounded=0;" edge="1" parent="1">
          <mxGeometry width="50" height="50" relative="1" as="geometry">
            <mxPoint x="400" y="700" as="sourcePoint" />
            <mxPoint x="620" y="700" as="targetPoint" />
          </mxGeometry>
        </mxCell>        <mxCell id="XFiRcjkOXk-42" value="MV1_Upr" style="rounded=0;whiteSpace=wrap;html=1;" parent="1" vertex="1">
          <mxGeometry x="240" y="760" width="160" height="40" as="geometry" />
        </mxCell>        <mxCell id="XFiRcjkOXk-43" value="" style="rounded=0;whiteSpace=wrap;html=1;" parent="1" vertex="1">
          <mxGeometry x="620" y="760" width="40" height="40" as="geometry" />
        </mxCell>        <mxCell id="XFiRcjkOXk-44" value="Функция управления вытяжным вентилятором MV1" style="text;html=1;align=center;verticalAlign=middle;whiteSpace=wrap;rounded=0;strokeColor=none;fillColor=default;" vertex="1" parent="1">
          <mxGeometry x="630" y="759" width="160" height="42" as="geometry" />
        </mxCell>        <mxCell id="XFiRcjkOXk-45" value="" style="endArrow=none;html=1;rounded=0;" edge="1" parent="1">
          <mxGeometry width="50" height="50" relative="1" as="geometry">
            <mxPoint x="200" y="780" as="sourcePoint" />
            <mxPoint x="240" y="780" as="targetPoint" />
          </mxGeometry>
        </mxCell>        <mxCell id="XFiRcjkOXk-46" value="" style="endArrow=none;html=1;rounded=0;" edge="1" parent="1">
          <mxGeometry width="50" height="50" relative="1" as="geometry">
            <mxPoint x="400" y="780" as="sourcePoint" />
            <mxPoint x="620" y="780" as="targetPoint" />
          </mxGeometry>
        </mxCell>        <mxCell id="XFiRcjkOXk-47" value="Nasos_P1_Upr" style="rounded=0;whiteSpace=wrap;html=1;" parent="1" vertex="1">
          <mxGeometry x="240" y="840" width="160" height="40" as="geometry" />
        </mxCell>        <mxCell id="XFiRcjkOXk-48" value="" style="rounded=0;whiteSpace=wrap;html=1;" parent="1" vertex="1">
          <mxGeometry x="620" y="840" width="40" height="40" as="geometry" />
        </mxCell>        <mxCell id="XFiRcjkOXk-49" value="Функция управления насосом P1" style="text;html=1;align=center;verticalAlign=middle;whiteSpace=wrap;rounded=0;strokeColor=none;fillColor=default;" vertex="1" parent="1">
          <mxGeometry x="630" y="839" width="160" height="42" as="geometry" />
        </mxCell>        <mxCell id="XFiRcjkOXk-50" value="" style="endArrow=none;html=1;rounded=0;" edge="1" parent="1">
          <mxGeometry width="50" height="50" relative="1" as="geometry">
            <mxPoint x="200" y="860" as="sourcePoint" />
            <mxPoint x="240" y="860" as="targetPoint" />
          </mxGeometry>
        </mxCell>        <mxCell id="XFiRcjkOXk-51" value="" style="endArrow=none;html=1;rounded=0;" edge="1" parent="1">
          <mxGeometry width="50" height="50" relative="1" as="geometry">
            <mxPoint x="400" y="860" as="sourcePoint" />
            <mxPoint x="620" y="860" as="targetPoint" />
          </mxGeometry>
        </mxCell>        <mxCell id="XFiRcjkOXk-52" value="razr_pusk" style="rounded=0;whiteSpace=wrap;html=1;" parent="1" vertex="1">
          <mxGeometry x="240" y="920" width="160" height="40" as="geometry" />
        </mxCell>        <mxCell id="XFiRcjkOXk-53" value="" style="rounded=0;whiteSpace=wrap;html=1;" parent="1" vertex="1">
          <mxGeometry x="620" y="920" width="40" height="40" as="geometry" />
        </mxCell>        <mxCell id="XFiRcjkOXk-54" value="Функция разрешения на пуск" style="text;html=1;align=center;verticalAlign=middle;whiteSpace=wrap;rounded=0;strokeColor=none;fillColor=default;" vertex="1" parent="1">
          <mxGeometry x="630" y="919" width="160" height="42" as="geometry" />
        </mxCell>        <mxCell id="XFiRcjkOXk-55" value="" style="endArrow=none;html=1;rounded=0;" edge="1" parent="1">
          <mxGeometry width="50" height="50" relative="1" as="geometry">
            <mxPoint x="200" y="940" as="sourcePoint" />
            <mxPoint x="240" y="940" as="targetPoint" />
          </mxGeometry>
        </mxCell>        <mxCell id="XFiRcjkOXk-56" value="" style="endArrow=none;html=1;rounded=0;" edge="1" parent="1">
          <mxGeometry width="50" height="50" relative="1" as="geometry">
            <mxPoint x="400" y="940" as="sourcePoint" />
            <mxPoint x="620" y="940" as="targetPoint" />
          </mxGeometry>
        </mxCell>        <mxCell id="XFiRcjkOXk-57" value="RQ1_CHASTOTA" style="rounded=0;whiteSpace=wrap;html=1;" parent="1" vertex="1">
          <mxGeometry x="240" y="1000" width="160" height="40" as="geometry" />
        </mxCell>        <mxCell id="XFiRcjkOXk-58" value="" style="rounded=0;whiteSpace=wrap;html=1;" parent="1" vertex="1">
          <mxGeometry x="620" y="1000" width="40" height="40" as="geometry" />
        </mxCell>        <mxCell id="XFiRcjkOXk-59" value="Функция регулирования частоты рекуператора RQ1" style="text;html=1;align=center;verticalAlign=middle;whiteSpace=wrap;rounded=0;strokeColor=none;fillColor=default;" vertex="1" parent="1">
          <mxGeometry x="630" y="999" width="160" height="42" as="geometry" />
        </mxCell>        <mxCell id="XFiRcjkOXk-60" value="" style="endArrow=none;html=1;rounded=0;" edge="1" parent="1">
          <mxGeometry width="50" height="50" relative="1" as="geometry">
            <mxPoint x="200" y="1020" as="sourcePoint" />
            <mxPoint x="240" y="1020" as="targetPoint" />
          </mxGeometry>
        </mxCell>        <mxCell id="XFiRcjkOXk-61" value="" style="endArrow=none;html=1;rounded=0;" edge="1" parent="1">
          <mxGeometry width="50" height="50" relative="1" as="geometry">
            <mxPoint x="400" y="1020" as="sourcePoint" />
            <mxPoint x="620" y="1020" as="targetPoint" />
          </mxGeometry>
        </mxCell>        <mxCell id="XFiRcjkOXk-62" value="YA1_Upr" style="rounded=0;whiteSpace=wrap;html=1;" parent="1" vertex="1">
          <mxGeometry x="240" y="1240" width="160" height="40" as="geometry" />
        </mxCell>        <mxCell id="XFiRcjkOXk-63" value="" style="rounded=0;whiteSpace=wrap;html=1;" parent="1" vertex="1">
          <mxGeometry x="620" y="1240" width="40" height="40" as="geometry" />
        </mxCell>        <mxCell id="XFiRcjkOXk-64" value="Функция управления регулятором YA1" style="text;html=1;align=center;verticalAlign=middle;whiteSpace=wrap;rounded=0;strokeColor=none;fillColor=default;" vertex="1" parent="1">
          <mxGeometry x="630" y="1239" width="160" height="42" as="geometry" />
        </mxCell>        <mxCell id="XFiRcjkOXk-65" value="" style="endArrow=none;html=1;rounded=0;" edge="1" parent="1">
          <mxGeometry width="50" height="50" relative="1" as="geometry">
            <mxPoint x="200" y="1260" as="sourcePoint" />
            <mxPoint x="240" y="1260" as="targetPoint" />
          </mxGeometry>
        </mxCell>        <mxCell id="XFiRcjkOXk-66" value="" style="endArrow=none;html=1;rounded=0;" edge="1" parent="1">
          <mxGeometry width="50" height="50" relative="1" as="geometry">
            <mxPoint x="400" y="1260" as="sourcePoint" />
            <mxPoint x="620" y="1260" as="targetPoint" />
          </mxGeometry>
        </mxCell>        <mxCell id="XFiRcjkOXk-67" value="YA2_Upr" style="rounded=0;whiteSpace=wrap;html=1;" parent="1" vertex="1">
          <mxGeometry x="240" y="1320" width="160" height="40" as="geometry" />
        </mxCell>        <mxCell id="XFiRcjkOXk-68" value="" style="rounded=0;whiteSpace=wrap;html=1;" parent="1" vertex="1">
          <mxGeometry x="620" y="1320" width="40" height="40" as="geometry" />
        </mxCell>        <mxCell id="XFiRcjkOXk-69" value="Функция управления регулятором YA2" style="text;html=1;align=center;verticalAlign=middle;whiteSpace=wrap;rounded=0;strokeColor=none;fillColor=default;" vertex="1" parent="1">
          <mxGeometry x="630" y="1319" width="160" height="42" as="geometry" />
        </mxCell>        <mxCell id="XFiRcjkOXk-70" value="" style="endArrow=none;html=1;rounded=0;" edge="1" parent="1">
          <mxGeometry width="50" height="50" relative="1" as="geometry">
            <mxPoint x="200" y="1340" as="sourcePoint" />
            <mxPoint x="240" y="1340" as="targetPoint" />
          </mxGeometry>
        </mxCell>        <mxCell id="XFiRcjkOXk-71" value="" style="endArrow=none;html=1;rounded=0;" edge="1" parent="1">
          <mxGeometry width="50" height="50" relative="1" as="geometry">
            <mxPoint x="400" y="1340" as="sourcePoint" />
            <mxPoint x="620" y="1340" as="targetPoint" />
          </mxGeometry>
        </mxCell>        <mxCell id="XFiRcjkOXk-72" value="YA3_Upr" style="rounded=0;whiteSpace=wrap;html=1;" parent="1" vertex="1">
          <mxGeometry x="240" y="1400" width="160" height="40" as="geometry" />
        </mxCell>        <mxCell id="XFiRcjkOXk-73" value="" style="rounded=0;whiteSpace=wrap;html=1;" parent="1" vertex="1">
          <mxGeometry x="620" y="1400" width="40" height="40" as="geometry" />
        </mxCell>        <mxCell id="XFiRcjkOXk-74" value="Функция управления регулятором YA3" style="text;html=1;align=center;verticalAlign=middle;whiteSpace=wrap;rounded=0;strokeColor=none;fillColor=default;" vertex="1" parent="1">
          <mxGeometry x="630" y="1399" width="160" height="42" as="geometry" />
        </mxCell>        <mxCell id="XFiRcjkOXk-75" value="" style="endArrow=none;html=1;rounded=0;" edge="1" parent="1">
          <mxGeometry width="50" height="50" relative="1" as="geometry">
            <mxPoint x="200" y="1420" as="sourcePoint" />
            <mxPoint x="240" y="1420" as="targetPoint" />
          </mxGeometry>
        </mxCell>        <mxCell id="XFiRcjkOXk-76" value="" style="endArrow=none;html=1;rounded=0;" edge="1" parent="1">
          <mxGeometry width="50" height="50" relative="1" as="geometry">
            <mxPoint x="400" y="1420" as="sourcePoint" />
            <mxPoint x="620" y="1420" as="targetPoint" />
          </mxGeometry>
        </mxCell>        <mxCell id="XFiRcjkOXk-77" value="YA4_Upr" style="rounded=0;whiteSpace=wrap;html=1;" parent="1" vertex="1">
          <mxGeometry x="240" y="1480" width="160" height="40" as="geometry" />
        </mxCell>        <mxCell id="XFiRcjkOXk-78" value="" style="rounded=0;whiteSpace=wrap;html=1;" parent="1" vertex="1">
          <mxGeometry x="620" y="1480" width="40" height="40" as="geometry" />
        </mxCell>        <mxCell id="XFiRcjkOXk-79" value="Функция управления регулятором YA4" style="text;html=1;align=center;verticalAlign=middle;whiteSpace=wrap;rounded=0;strokeColor=none;fillColor=default;" vertex="1" parent="1">
          <mxGeometry x="630" y="1479" width="160" height="42" as="geometry" />
        </mxCell>        <mxCell id="XFiRcjkOXk-80" value="" style="endArrow=none;html=1;rounded=0;" edge="1" parent="1">
          <mxGeometry width="50" height="50" relative="1" as="geometry">
            <mxPoint x="200" y="1500" as="sourcePoint" />
            <mxPoint x="240" y="1500" as="targetPoint" />
          </mxGeometry>
        </mxCell>        <mxCell id="XFiRcjkOXk-81" value="" style="endArrow=none;html=1;rounded=0;" edge="1" parent="1">
          <mxGeometry width="50" height="50" relative="1" as="geometry">
            <mxPoint x="400" y="1500" as="sourcePoint" />
            <mxPoint x="620" y="1500" as="targetPoint" />
          </mxGeometry>
        </mxCell>        <mxCell id="XFiRcjkOXk-82" value="" style="endArrow=none;html=1;rounded=0;" edge="1" parent="1">
          <mxGeometry width="50" height="50" relative="1" as="geometry">
            <mxPoint x="200" y="320" as="sourcePoint" />
            <mxPoint x="200" y="1080" as="targetPoint" />
          </mxGeometry>
        </mxCell>        <mxCell id="XFiRcjkOXk-83" value="1" style="ellipse;whiteSpace=wrap;html=1;aspect=fixed;" vertex="1" parent="1">
          <mxGeometry x="180" y="1080" width="40" height="40" as="geometry" />
        </mxCell>        <mxCell id="XFiRcjkOXk-84" value="1" style="ellipse;whiteSpace=wrap;html=1;aspect=fixed;" vertex="1" parent="1">
          <mxGeometry x="180" y="1200" width="40" height="40" as="geometry" />
        </mxCell>        <mxCell id="XFiRcjkOXk-85" value="" style="endArrow=none;html=1;rounded=0;" edge="1" parent="1">
          <mxGeometry width="50" height="50" relative="1" as="geometry">
            <mxPoint x="200" y="1240" as="sourcePoint" />
            <mxPoint x="200" y="1500" as="targetPoint" />
          </mxGeometry>
        </mxCell>        <mxCell id="XFiRcjkOXk-86" value="Input" style="rounded=0;whiteSpace=wrap;html=1;" parent="1" vertex="1">
          <mxGeometry x="120" y="1560" width="160" height="40" as="geometry" />
        </mxCell>        <mxCell id="XFiRcjkOXk-87" value="" style="rounded=0;whiteSpace=wrap;html=1;" parent="1" vertex="1">
          <mxGeometry x="620" y="1560" width="40" height="40" as="geometry" />
        </mxCell>        <mxCell id="XFiRcjkOXk-88" value="Папка с функциями обработки внешних данных" style="text;html=1;align=center;verticalAlign=middle;whiteSpace=wrap;rounded=0;strokeColor=none;fillColor=default;" vertex="1" parent="1">
          <mxGeometry x="630" y="1559" width="160" height="42" as="geometry" />
        </mxCell>        <mxCell id="XFiRcjkOXk-89" value="" style="endArrow=none;html=1;rounded=0;" edge="1" parent="1">
          <mxGeometry width="50" height="50" relative="1" as="geometry">
            <mxPoint x="80" y="1580" as="sourcePoint" />
            <mxPoint x="120" y="1580" as="targetPoint" />
          </mxGeometry>
        </mxCell>        <mxCell id="XFiRcjkOXk-90" value="" style="endArrow=none;html=1;rounded=0;" edge="1" parent="1">
          <mxGeometry width="50" height="50" relative="1" as="geometry">
            <mxPoint x="280" y="1580" as="sourcePoint" />
            <mxPoint x="620" y="1580" as="targetPoint" />
          </mxGeometry>
        </mxCell>        <mxCell id="XFiRcjkOXk-91" value="ALL_Input" style="rounded=0;whiteSpace=wrap;html=1;" parent="1" vertex="1">
          <mxGeometry x="240" y="1640" width="160" height="40" as="geometry" />
        </mxCell>        <mxCell id="XFiRcjkOXk-92" value="" style="rounded=0;whiteSpace=wrap;html=1;" parent="1" vertex="1">
          <mxGeometry x="620" y="1640" width="40" height="40" as="geometry" />
        </mxCell>        <mxCell id="XFiRcjkOXk-93" value="Функции для опроса и обработки входных переменных" style="text;html=1;align=center;verticalAlign=middle;whiteSpace=wrap;rounded=0;strokeColor=none;fillColor=default;" vertex="1" parent="1">
          <mxGeometry x="630" y="1639" width="160" height="42" as="geometry" />
        </mxCell>        <mxCell id="XFiRcjkOXk-94" value="" style="endArrow=none;html=1;rounded=0;" edge="1" parent="1">
          <mxGeometry width="50" height="50" relative="1" as="geometry">
            <mxPoint x="200" y="1660" as="sourcePoint" />
            <mxPoint x="240" y="1660" as="targetPoint" />
          </mxGeometry>
        </mxCell>        <mxCell id="XFiRcjkOXk-95" value="" style="endArrow=none;html=1;rounded=0;" edge="1" parent="1">
          <mxGeometry width="50" height="50" relative="1" as="geometry">
            <mxPoint x="400" y="1660" as="sourcePoint" />
            <mxPoint x="620" y="1660" as="targetPoint" />
          </mxGeometry>
        </mxCell>        <mxCell id="XFiRcjkOXk-96" value="VALID_VH_VEL" style="rounded=0;whiteSpace=wrap;html=1;" parent="1" vertex="1">
          <mxGeometry x="240" y="1720" width="160" height="40" as="geometry" />
        </mxCell>        <mxCell id="XFiRcjkOXk-97" value="" style="rounded=0;whiteSpace=wrap;html=1;" parent="1" vertex="1">
          <mxGeometry x="620" y="1720" width="40" height="40" as="geometry" />
        </mxCell>        <mxCell id="XFiRcjkOXk-98" value="Функция проверки входных величин" style="text;html=1;align=center;verticalAlign=middle;whiteSpace=wrap;rounded=0;strokeColor=none;fillColor=default;" vertex="1" parent="1">
          <mxGeometry x="630" y="1719" width="160" height="42" as="geometry" />
        </mxCell>        <mxCell id="XFiRcjkOXk-99" value="" style="endArrow=none;html=1;rounded=0;" edge="1" parent="1">
          <mxGeometry width="50" height="50" relative="1" as="geometry">
            <mxPoint x="200" y="1740" as="sourcePoint" />
            <mxPoint x="240" y="1740" as="targetPoint" />
          </mxGeometry>
        </mxCell>        <mxCell id="XFiRcjkOXk-100" value="" style="endArrow=none;html=1;rounded=0;" edge="1" parent="1">
          <mxGeometry width="50" height="50" relative="1" as="geometry">
            <mxPoint x="400" y="1740" as="sourcePoint" />
            <mxPoint x="620" y="1740" as="targetPoint" />
          </mxGeometry>
        </mxCell>        <mxCell id="XFiRcjkOXk-101" value="AI" style="rounded=0;whiteSpace=wrap;html=1;" parent="1" vertex="1">
          <mxGeometry x="240" y="1800" width="160" height="40" as="geometry" />
        </mxCell>        <mxCell id="XFiRcjkOXk-102" value="" style="rounded=0;whiteSpace=wrap;html=1;" parent="1" vertex="1">
          <mxGeometry x="620" y="1800" width="40" height="40" as="geometry" />
        </mxCell>        <mxCell id="XFiRcjkOXk-103" value="Папка с функциями обработки входных аналоговых сигналов" style="text;html=1;align=center;verticalAlign=middle;whiteSpace=wrap;rounded=0;strokeColor=none;fillColor=default;" vertex="1" parent="1">
          <mxGeometry x="630" y="1799" width="160" height="42" as="geometry" />
        </mxCell>        <mxCell id="XFiRcjkOXk-104" value="" style="endArrow=none;html=1;rounded=0;" edge="1" parent="1">
          <mxGeometry width="50" height="50" relative="1" as="geometry">
            <mxPoint x="200" y="1820" as="sourcePoint" />
            <mxPoint x="240" y="1820" as="targetPoint" />
          </mxGeometry>
        </mxCell>        <mxCell id="XFiRcjkOXk-105" value="" style="endArrow=none;html=1;rounded=0;" edge="1" parent="1">
          <mxGeometry width="50" height="50" relative="1" as="geometry">
            <mxPoint x="400" y="1820" as="sourcePoint" />
            <mxPoint x="620" y="1820" as="targetPoint" />
          </mxGeometry>
        </mxCell>        <mxCell id="XFiRcjkOXk-106" value="TE1" style="rounded=0;whiteSpace=wrap;html=1;" parent="1" vertex="1">
          <mxGeometry x="360" y="1880" width="160" height="40" as="geometry" />
        </mxCell>        <mxCell id="XFiRcjkOXk-107" value="" style="rounded=0;whiteSpace=wrap;html=1;" parent="1" vertex="1">
          <mxGeometry x="620" y="1880" width="40" height="40" as="geometry" />
        </mxCell>        <mxCell id="XFiRcjkOXk-108" value="Функция обработки показаний с датчика температуры TE1" style="text;html=1;align=center;verticalAlign=middle;whiteSpace=wrap;rounded=0;strokeColor=none;fillColor=default;" vertex="1" parent="1">
          <mxGeometry x="630" y="1879" width="160" height="42" as="geometry" />
        </mxCell>        <mxCell id="XFiRcjkOXk-109" value="" style="endArrow=none;html=1;rounded=0;" edge="1" parent="1">
          <mxGeometry width="50" height="50" relative="1" as="geometry">
            <mxPoint x="320" y="1900" as="sourcePoint" />
            <mxPoint x="360" y="1900" as="targetPoint" />
          </mxGeometry>
        </mxCell>        <mxCell id="XFiRcjkOXk-110" value="" style="endArrow=none;html=1;rounded=0;" edge="1" parent="1">
          <mxGeometry width="50" height="50" relative="1" as="geometry">
            <mxPoint x="520" y="1900" as="sourcePoint" />
            <mxPoint x="620" y="1900" as="targetPoint" />
          </mxGeometry>
        </mxCell>        <mxCell id="XFiRcjkOXk-111" value="TE3" style="rounded=0;whiteSpace=wrap;html=1;" parent="1" vertex="1">
          <mxGeometry x="360" y="1960" width="160" height="40" as="geometry" />
        </mxCell>        <mxCell id="XFiRcjkOXk-112" value="" style="rounded=0;whiteSpace=wrap;html=1;" parent="1" vertex="1">
          <mxGeometry x="620" y="1960" width="40" height="40" as="geometry" />
        </mxCell>        <mxCell id="XFiRcjkOXk-113" value="Функция обработки показаний с датчика температуры TE3" style="text;html=1;align=center;verticalAlign=middle;whiteSpace=wrap;rounded=0;strokeColor=none;fillColor=default;" vertex="1" parent="1">
          <mxGeometry x="630" y="1959" width="160" height="42" as="geometry" />
        </mxCell>        <mxCell id="XFiRcjkOXk-114" value="" style="endArrow=none;html=1;rounded=0;" edge="1" parent="1">
          <mxGeometry width="50" height="50" relative="1" as="geometry">
            <mxPoint x="320" y="1980" as="sourcePoint" />
            <mxPoint x="360" y="1980" as="targetPoint" />
          </mxGeometry>
        </mxCell>        <mxCell id="XFiRcjkOXk-115" value="" style="endArrow=none;html=1;rounded=0;" edge="1" parent="1">
          <mxGeometry width="50" height="50" relative="1" as="geometry">
            <mxPoint x="520" y="1980" as="sourcePoint" />
            <mxPoint x="620" y="1980" as="targetPoint" />
          </mxGeometry>
        </mxCell>        <mxCell id="XFiRcjkOXk-116" value="TE4" style="rounded=0;whiteSpace=wrap;html=1;" parent="1" vertex="1">
          <mxGeometry x="360" y="2040" width="160" height="40" as="geometry" />
        </mxCell>        <mxCell id="XFiRcjkOXk-117" value="" style="rounded=0;whiteSpace=wrap;html=1;" parent="1" vertex="1">
          <mxGeometry x="620" y="2040" width="40" height="40" as="geometry" />
        </mxCell>        <mxCell id="XFiRcjkOXk-118" value="Функция обработки показаний с датчика температуры TE4" style="text;html=1;align=center;verticalAlign=middle;whiteSpace=wrap;rounded=0;strokeColor=none;fillColor=default;" vertex="1" parent="1">
          <mxGeometry x="630" y="2039" width="160" height="42" as="geometry" />
        </mxCell>        <mxCell id="XFiRcjkOXk-119" value="" style="endArrow=none;html=1;rounded=0;" edge="1" parent="1">
          <mxGeometry width="50" height="50" relative="1" as="geometry">
            <mxPoint x="320" y="2060" as="sourcePoint" />
            <mxPoint x="360" y="2060" as="targetPoint" />
          </mxGeometry>
        </mxCell>        <mxCell id="XFiRcjkOXk-120" value="" style="endArrow=none;html=1;rounded=0;" edge="1" parent="1">
          <mxGeometry width="50" height="50" relative="1" as="geometry">
            <mxPoint x="520" y="2060" as="sourcePoint" />
            <mxPoint x="620" y="2060" as="targetPoint" />
          </mxGeometry>
        </mxCell>        <mxCell id="XFiRcjkOXk-121" value="TE6" style="rounded=0;whiteSpace=wrap;html=1;" parent="1" vertex="1">
          <mxGeometry x="360" y="2120" width="160" height="40" as="geometry" />
        </mxCell>        <mxCell id="XFiRcjkOXk-122" value="" style="rounded=0;whiteSpace=wrap;html=1;" parent="1" vertex="1">
          <mxGeometry x="620" y="2120" width="40" height="40" as="geometry" />
        </mxCell>        <mxCell id="XFiRcjkOXk-123" value="Функция обработки показаний с датчика температуры TE6" style="text;html=1;align=center;verticalAlign=middle;whiteSpace=wrap;rounded=0;strokeColor=none;fillColor=default;" vertex="1" parent="1">
          <mxGeometry x="630" y="2119" width="160" height="42" as="geometry" />
        </mxCell>        <mxCell id="XFiRcjkOXk-124" value="" style="endArrow=none;html=1;rounded=0;" edge="1" parent="1">
          <mxGeometry width="50" height="50" relative="1" as="geometry">
            <mxPoint x="320" y="2140" as="sourcePoint" />
            <mxPoint x="360" y="2140" as="targetPoint" />
          </mxGeometry>
        </mxCell>        <mxCell id="XFiRcjkOXk-125" value="" style="endArrow=none;html=1;rounded=0;" edge="1" parent="1">
          <mxGeometry width="50" height="50" relative="1" as="geometry">
            <mxPoint x="520" y="2140" as="sourcePoint" />
            <mxPoint x="620" y="2140" as="targetPoint" />
          </mxGeometry>
        </mxCell>        <mxCell id="XFiRcjkOXk-126" value="YA3_POS" style="rounded=0;whiteSpace=wrap;html=1;" parent="1" vertex="1">
          <mxGeometry x="360" y="2200" width="160" height="40" as="geometry" />
        </mxCell>        <mxCell id="XFiRcjkOXk-127" value="" style="rounded=0;whiteSpace=wrap;html=1;" parent="1" vertex="1">
          <mxGeometry x="620" y="2200" width="40" height="40" as="geometry" />
        </mxCell>        <mxCell id="XFiRcjkOXk-128" value="Функция обработки показаний положения клапана YA3" style="text;html=1;align=center;verticalAlign=middle;whiteSpace=wrap;rounded=0;strokeColor=none;fillColor=default;" vertex="1" parent="1">
          <mxGeometry x="630" y="2199" width="160" height="42" as="geometry" />
        </mxCell>        <mxCell id="XFiRcjkOXk-129" value="" style="endArrow=none;html=1;rounded=0;" edge="1" parent="1">
          <mxGeometry width="50" height="50" relative="1" as="geometry">
            <mxPoint x="320" y="2220" as="sourcePoint" />
            <mxPoint x="360" y="2220" as="targetPoint" />
          </mxGeometry>
        </mxCell>        <mxCell id="XFiRcjkOXk-130" value="" style="endArrow=none;html=1;rounded=0;" edge="1" parent="1">
          <mxGeometry width="50" height="50" relative="1" as="geometry">
            <mxPoint x="520" y="2220" as="sourcePoint" />
            <mxPoint x="620" y="2220" as="targetPoint" />
          </mxGeometry>
        </mxCell>        <mxCell id="XFiRcjkOXk-131" value="YA4_POS" style="rounded=0;whiteSpace=wrap;html=1;" parent="1" vertex="1">
          <mxGeometry x="360" y="2410" width="160" height="40" as="geometry" />
        </mxCell>        <mxCell id="XFiRcjkOXk-132" value="" style="rounded=0;whiteSpace=wrap;html=1;" parent="1" vertex="1">
          <mxGeometry x="620" y="2410" width="40" height="40" as="geometry" />
        </mxCell>        <mxCell id="XFiRcjkOXk-133" value="Функция обработки показаний положения клапана YA4" style="text;html=1;align=center;verticalAlign=middle;whiteSpace=wrap;rounded=0;strokeColor=none;fillColor=default;" vertex="1" parent="1">
          <mxGeometry x="630" y="2409" width="160" height="42" as="geometry" />
        </mxCell>        <mxCell id="XFiRcjkOXk-134" value="" style="endArrow=none;html=1;rounded=0;" edge="1" parent="1">
          <mxGeometry width="50" height="50" relative="1" as="geometry">
            <mxPoint x="320" y="2430" as="sourcePoint" />
            <mxPoint x="360" y="2430" as="targetPoint" />
          </mxGeometry>
        </mxCell>        <mxCell id="XFiRcjkOXk-135" value="" style="endArrow=none;html=1;rounded=0;" edge="1" parent="1">
          <mxGeometry width="50" height="50" relative="1" as="geometry">
            <mxPoint x="520" y="2430" as="sourcePoint" />
            <mxPoint x="620" y="2430" as="targetPoint" />
          </mxGeometry>
        </mxCell>        <mxCell id="XFiRcjkOXk-136" value="" style="endArrow=none;html=1;rounded=0;" edge="1" parent="1">
          <mxGeometry width="50" height="50" relative="1" as="geometry">
            <mxPoint x="320" y="1840" as="sourcePoint" />
            <mxPoint x="320" y="2250" as="targetPoint" />
          </mxGeometry>
        </mxCell>        <mxCell id="XFiRcjkOXk-137" value="2" style="ellipse;whiteSpace=wrap;html=1;aspect=fixed;" vertex="1" parent="1">
          <mxGeometry x="300" y="2250" width="40" height="40" as="geometry" />
        </mxCell>        <mxCell id="XFiRcjkOXk-138" value="2" style="ellipse;whiteSpace=wrap;html=1;aspect=fixed;" vertex="1" parent="1">
          <mxGeometry x="300" y="2370" width="40" height="40" as="geometry" />
        </mxCell>        <mxCell id="XFiRcjkOXk-139" value="" style="endArrow=none;html=1;rounded=0;" edge="1" parent="1">
          <mxGeometry width="50" height="50" relative="1" as="geometry">
            <mxPoint x="320" y="2410" as="sourcePoint" />
            <mxPoint x="320" y="2430" as="targetPoint" />
          </mxGeometry>
        </mxCell>        <mxCell id="XFiRcjkOXk-140" value="CI" style="rounded=0;whiteSpace=wrap;html=1;" parent="1" vertex="1">
          <mxGeometry x="240" y="2490" width="160" height="40" as="geometry" />
        </mxCell>        <mxCell id="XFiRcjkOXk-141" value="" style="rounded=0;whiteSpace=wrap;html=1;" parent="1" vertex="1">
          <mxGeometry x="620" y="2490" width="40" height="40" as="geometry" />
        </mxCell>        <mxCell id="XFiRcjkOXk-142" value="Папка с функциями обработки входных цифровых сигналов" style="text;html=1;align=center;verticalAlign=middle;whiteSpace=wrap;rounded=0;strokeColor=none;fillColor=default;" vertex="1" parent="1">
          <mxGeometry x="630" y="2489" width="160" height="42" as="geometry" />
        </mxCell>        <mxCell id="XFiRcjkOXk-143" value="" style="endArrow=none;html=1;rounded=0;" edge="1" parent="1">
          <mxGeometry width="50" height="50" relative="1" as="geometry">
            <mxPoint x="200" y="2510" as="sourcePoint" />
            <mxPoint x="240" y="2510" as="targetPoint" />
          </mxGeometry>
        </mxCell>        <mxCell id="XFiRcjkOXk-144" value="" style="endArrow=none;html=1;rounded=0;" edge="1" parent="1">
          <mxGeometry width="50" height="50" relative="1" as="geometry">
            <mxPoint x="400" y="2510" as="sourcePoint" />
            <mxPoint x="620" y="2510" as="targetPoint" />
          </mxGeometry>
        </mxCell>        <mxCell id="XFiRcjkOXk-145" value="ModBus_M" style="rounded=0;whiteSpace=wrap;html=1;" parent="1" vertex="1">
          <mxGeometry x="360" y="2570" width="160" height="40" as="geometry" />
        </mxCell>        <mxCell id="XFiRcjkOXk-146" value="" style="rounded=0;whiteSpace=wrap;html=1;" parent="1" vertex="1">
          <mxGeometry x="620" y="2570" width="40" height="40" as="geometry" />
        </mxCell>        <mxCell id="XFiRcjkOXk-147" value="Функция обработки ModBus запросов" style="text;html=1;align=center;verticalAlign=middle;whiteSpace=wrap;rounded=0;strokeColor=none;fillColor=default;" vertex="1" parent="1">
          <mxGeometry x="630" y="2569" width="160" height="42" as="geometry" />
        </mxCell>        <mxCell id="XFiRcjkOXk-148" value="" style="endArrow=none;html=1;rounded=0;" edge="1" parent="1">
          <mxGeometry width="50" height="50" relative="1" as="geometry">
            <mxPoint x="320" y="2590" as="sourcePoint" />
            <mxPoint x="360" y="2590" as="targetPoint" />
          </mxGeometry>
        </mxCell>        <mxCell id="XFiRcjkOXk-149" value="" style="endArrow=none;html=1;rounded=0;" edge="1" parent="1">
          <mxGeometry width="50" height="50" relative="1" as="geometry">
            <mxPoint x="520" y="2590" as="sourcePoint" />
            <mxPoint x="620" y="2590" as="targetPoint" />
          </mxGeometry>
        </mxCell>        <mxCell id="XFiRcjkOXk-150" value="MP1_OB" style="rounded=0;whiteSpace=wrap;html=1;" parent="1" vertex="1">
          <mxGeometry x="360" y="2650" width="160" height="40" as="geometry" />
        </mxCell>        <mxCell id="XFiRcjkOXk-151" value="" style="rounded=0;whiteSpace=wrap;html=1;" parent="1" vertex="1">
          <mxGeometry x="620" y="2650" width="40" height="40" as="geometry" />
        </mxCell>        <mxCell id="XFiRcjkOXk-152" value="Функция обработки обратной связи по частоте с двигателя MP1" style="text;html=1;align=center;verticalAlign=middle;whiteSpace=wrap;rounded=0;strokeColor=none;fillColor=default;" vertex="1" parent="1">
          <mxGeometry x="630" y="2649" width="160" height="42" as="geometry" />
        </mxCell>        <mxCell id="XFiRcjkOXk-153" value="" style="endArrow=none;html=1;rounded=0;" edge="1" parent="1">
          <mxGeometry width="50" height="50" relative="1" as="geometry">
            <mxPoint x="320" y="2670" as="sourcePoint" />
            <mxPoint x="360" y="2670" as="targetPoint" />
          </mxGeometry>
        </mxCell>        <mxCell id="XFiRcjkOXk-154" value="" style="endArrow=none;html=1;rounded=0;" edge="1" parent="1">
          <mxGeometry width="50" height="50" relative="1" as="geometry">
            <mxPoint x="520" y="2670" as="sourcePoint" />
            <mxPoint x="620" y="2670" as="targetPoint" />
          </mxGeometry>
        </mxCell>        <mxCell id="XFiRcjkOXk-155" value="MRQ1_OB" style="rounded=0;whiteSpace=wrap;html=1;" parent="1" vertex="1">
          <mxGeometry x="360" y="2730" width="160" height="40" as="geometry" />
        </mxCell>        <mxCell id="XFiRcjkOXk-156" value="" style="rounded=0;whiteSpace=wrap;html=1;" parent="1" vertex="1">
          <mxGeometry x="620" y="2730" width="40" height="40" as="geometry" />
        </mxCell>        <mxCell id="XFiRcjkOXk-157" value="Функция обработки обратной связи от рекуператора RQ1" style="text;html=1;align=center;verticalAlign=middle;whiteSpace=wrap;rounded=0;strokeColor=none;fillColor=default;" vertex="1" parent="1">
          <mxGeometry x="630" y="2729" width="160" height="42" as="geometry" />
        </mxCell>        <mxCell id="XFiRcjkOXk-158" value="" style="endArrow=none;html=1;rounded=0;" edge="1" parent="1">
          <mxGeometry width="50" height="50" relative="1" as="geometry">
            <mxPoint x="320" y="2750" as="sourcePoint" />
            <mxPoint x="360" y="2750" as="targetPoint" />
          </mxGeometry>
        </mxCell>        <mxCell id="XFiRcjkOXk-159" value="" style="endArrow=none;html=1;rounded=0;" edge="1" parent="1">
          <mxGeometry width="50" height="50" relative="1" as="geometry">
            <mxPoint x="520" y="2750" as="sourcePoint" />
            <mxPoint x="620" y="2750" as="targetPoint" />
          </mxGeometry>
        </mxCell>        <mxCell id="XFiRcjkOXk-160" value="MV1_OB" style="rounded=0;whiteSpace=wrap;html=1;" parent="1" vertex="1">
          <mxGeometry x="360" y="2810" width="160" height="40" as="geometry" />
        </mxCell>        <mxCell id="XFiRcjkOXk-161" value="" style="rounded=0;whiteSpace=wrap;html=1;" parent="1" vertex="1">
          <mxGeometry x="620" y="2810" width="40" height="40" as="geometry" />
        </mxCell>        <mxCell id="XFiRcjkOXk-162" value="Функция обработки обратной связи по частоте с двигателя MV1" style="text;html=1;align=center;verticalAlign=middle;whiteSpace=wrap;rounded=0;strokeColor=none;fillColor=default;" vertex="1" parent="1">
          <mxGeometry x="630" y="2809" width="160" height="42" as="geometry" />
        </mxCell>        <mxCell id="XFiRcjkOXk-163" value="" style="endArrow=none;html=1;rounded=0;" edge="1" parent="1">
          <mxGeometry width="50" height="50" relative="1" as="geometry">
            <mxPoint x="320" y="2830" as="sourcePoint" />
            <mxPoint x="360" y="2830" as="targetPoint" />
          </mxGeometry>
        </mxCell>        <mxCell id="XFiRcjkOXk-164" value="" style="endArrow=none;html=1;rounded=0;" edge="1" parent="1">
          <mxGeometry width="50" height="50" relative="1" as="geometry">
            <mxPoint x="520" y="2830" as="sourcePoint" />
            <mxPoint x="620" y="2830" as="targetPoint" />
          </mxGeometry>
        </mxCell>        <mxCell id="XFiRcjkOXk-165" value="" style="endArrow=none;html=1;rounded=0;" edge="1" parent="1">
          <mxGeometry width="50" height="50" relative="1" as="geometry">
            <mxPoint x="320" y="2530" as="sourcePoint" />
            <mxPoint x="320" y="2830" as="targetPoint" />
          </mxGeometry>
        </mxCell>        <mxCell id="XFiRcjkOXk-166" value="" style="endArrow=none;html=1;rounded=0;" edge="1" parent="1">
          <mxGeometry width="50" height="50" relative="1" as="geometry">
            <mxPoint x="200" y="1600" as="sourcePoint" />
            <mxPoint x="200" y="2250" as="targetPoint" />
          </mxGeometry>
        </mxCell>        <mxCell id="XFiRcjkOXk-167" value="3" style="ellipse;whiteSpace=wrap;html=1;aspect=fixed;" vertex="1" parent="1">
          <mxGeometry x="180" y="2250" width="40" height="40" as="geometry" />
        </mxCell>        <mxCell id="XFiRcjkOXk-168" value="3" style="ellipse;whiteSpace=wrap;html=1;aspect=fixed;" vertex="1" parent="1">
          <mxGeometry x="180" y="2370" width="40" height="40" as="geometry" />
        </mxCell>        <mxCell id="XFiRcjkOXk-169" value="" style="endArrow=none;html=1;rounded=0;" edge="1" parent="1">
          <mxGeometry width="50" height="50" relative="1" as="geometry">
            <mxPoint x="200" y="2410" as="sourcePoint" />
            <mxPoint x="200" y="2510" as="targetPoint" />
          </mxGeometry>
        </mxCell>        <mxCell id="XFiRcjkOXk-170" value="Lib" style="rounded=0;whiteSpace=wrap;html=1;" parent="1" vertex="1">
          <mxGeometry x="120" y="2890" width="160" height="40" as="geometry" />
        </mxCell>        <mxCell id="XFiRcjkOXk-171" value="" style="rounded=0;whiteSpace=wrap;html=1;" parent="1" vertex="1">
          <mxGeometry x="620" y="2890" width="40" height="40" as="geometry" />
        </mxCell>        <mxCell id="XFiRcjkOXk-172" value="Папка с библиотеками для функций" style="text;html=1;align=center;verticalAlign=middle;whiteSpace=wrap;rounded=0;strokeColor=none;fillColor=default;" vertex="1" parent="1">
          <mxGeometry x="630" y="2889" width="160" height="42" as="geometry" />
        </mxCell>        <mxCell id="XFiRcjkOXk-173" value="" style="endArrow=none;html=1;rounded=0;" edge="1" parent="1">
          <mxGeometry width="50" height="50" relative="1" as="geometry">
            <mxPoint x="80" y="2910" as="sourcePoint" />
            <mxPoint x="120" y="2910" as="targetPoint" />
          </mxGeometry>
        </mxCell>        <mxCell id="XFiRcjkOXk-174" value="" style="endArrow=none;html=1;rounded=0;" edge="1" parent="1">
          <mxGeometry width="50" height="50" relative="1" as="geometry">
            <mxPoint x="280" y="2910" as="sourcePoint" />
            <mxPoint x="620" y="2910" as="targetPoint" />
          </mxGeometry>
        </mxCell>        <mxCell id="XFiRcjkOXk-175" value="ISTOK_ANALOGVH" style="rounded=0;whiteSpace=wrap;html=1;" parent="1" vertex="1">
          <mxGeometry x="240" y="2970" width="160" height="40" as="geometry" />
        </mxCell>        <mxCell id="XFiRcjkOXk-176" value="" style="rounded=0;whiteSpace=wrap;html=1;" parent="1" vertex="1">
          <mxGeometry x="620" y="2970" width="40" height="40" as="geometry" />
        </mxCell>        <mxCell id="XFiRcjkOXk-177" value="Функция обработки аналогового сигнала" style="text;html=1;align=center;verticalAlign=middle;whiteSpace=wrap;rounded=0;strokeColor=none;fillColor=default;" vertex="1" parent="1">
          <mxGeometry x="630" y="2969" width="160" height="42" as="geometry" />
        </mxCell>        <mxCell id="XFiRcjkOXk-178" value="" style="endArrow=none;html=1;rounded=0;" edge="1" parent="1">
          <mxGeometry width="50" height="50" relative="1" as="geometry">
            <mxPoint x="200" y="2990" as="sourcePoint" />
            <mxPoint x="240" y="2990" as="targetPoint" />
          </mxGeometry>
        </mxCell>        <mxCell id="XFiRcjkOXk-179" value="" style="endArrow=none;html=1;rounded=0;" edge="1" parent="1">
          <mxGeometry width="50" height="50" relative="1" as="geometry">
            <mxPoint x="400" y="2990" as="sourcePoint" />
            <mxPoint x="620" y="2990" as="targetPoint" />
          </mxGeometry>
        </mxCell>        <mxCell id="XFiRcjkOXk-180" value="ISTOK_EQ" style="rounded=0;whiteSpace=wrap;html=1;" parent="1" vertex="1">
          <mxGeometry x="240" y="3050" width="160" height="40" as="geometry" />
        </mxCell>        <mxCell id="XFiRcjkOXk-181" value="" style="rounded=0;whiteSpace=wrap;html=1;" parent="1" vertex="1">
          <mxGeometry x="620" y="3050" width="40" height="40" as="geometry" />
        </mxCell>        <mxCell id="XFiRcjkOXk-182" value="Функция проверки эквивалентности двух значений с гистерезисом" style="text;html=1;align=center;verticalAlign=middle;whiteSpace=wrap;rounded=0;strokeColor=none;fillColor=default;" vertex="1" parent="1">
          <mxGeometry x="630" y="3049" width="160" height="42" as="geometry" />
        </mxCell>        <mxCell id="XFiRcjkOXk-183" value="" style="endArrow=none;html=1;rounded=0;" edge="1" parent="1">
          <mxGeometry width="50" height="50" relative="1" as="geometry">
            <mxPoint x="200" y="3070" as="sourcePoint" />
            <mxPoint x="240" y="3070" as="targetPoint" />
          </mxGeometry>
        </mxCell>        <mxCell id="XFiRcjkOXk-184" value="" style="endArrow=none;html=1;rounded=0;" edge="1" parent="1">
          <mxGeometry width="50" height="50" relative="1" as="geometry">
            <mxPoint x="400" y="3070" as="sourcePoint" />
            <mxPoint x="620" y="3070" as="targetPoint" />
          </mxGeometry>
        </mxCell>        <mxCell id="XFiRcjkOXk-185" value="ISTOK_GT" style="rounded=0;whiteSpace=wrap;html=1;" parent="1" vertex="1">
          <mxGeometry x="240" y="3130" width="160" height="40" as="geometry" />
        </mxCell>        <mxCell id="XFiRcjkOXk-186" value="" style="rounded=0;whiteSpace=wrap;html=1;" parent="1" vertex="1">
          <mxGeometry x="620" y="3130" width="40" height="40" as="geometry" />
        </mxCell>        <mxCell id="XFiRcjkOXk-187" value="Функция больше с гистерезисом" style="text;html=1;align=center;verticalAlign=middle;whiteSpace=wrap;rounded=0;strokeColor=none;fillColor=default;" vertex="1" parent="1">
          <mxGeometry x="630" y="3129" width="160" height="42" as="geometry" />
        </mxCell>        <mxCell id="XFiRcjkOXk-188" value="" style="endArrow=none;html=1;rounded=0;" edge="1" parent="1">
          <mxGeometry width="50" height="50" relative="1" as="geometry">
            <mxPoint x="200" y="3150" as="sourcePoint" />
            <mxPoint x="240" y="3150" as="targetPoint" />
          </mxGeometry>
        </mxCell>        <mxCell id="XFiRcjkOXk-189" value="" style="endArrow=none;html=1;rounded=0;" edge="1" parent="1">
          <mxGeometry width="50" height="50" relative="1" as="geometry">
            <mxPoint x="400" y="3150" as="sourcePoint" />
            <mxPoint x="620" y="3150" as="targetPoint" />
          </mxGeometry>
        </mxCell>        <mxCell id="XFiRcjkOXk-190" value="ISTOK_LT" style="rounded=0;whiteSpace=wrap;html=1;" parent="1" vertex="1">
          <mxGeometry x="240" y="3210" width="160" height="40" as="geometry" />
        </mxCell>        <mxCell id="XFiRcjkOXk-191" value="" style="rounded=0;whiteSpace=wrap;html=1;" parent="1" vertex="1">
          <mxGeometry x="620" y="3210" width="40" height="40" as="geometry" />
        </mxCell>        <mxCell id="XFiRcjkOXk-192" value="Функция меньше с гистерезисом" style="text;html=1;align=center;verticalAlign=middle;whiteSpace=wrap;rounded=0;strokeColor=none;fillColor=default;" vertex="1" parent="1">
          <mxGeometry x="630" y="3209" width="160" height="42" as="geometry" />
        </mxCell>        <mxCell id="XFiRcjkOXk-193" value="" style="endArrow=none;html=1;rounded=0;" edge="1" parent="1">
          <mxGeometry width="50" height="50" relative="1" as="geometry">
            <mxPoint x="200" y="3230" as="sourcePoint" />
            <mxPoint x="240" y="3230" as="targetPoint" />
          </mxGeometry>
        </mxCell>        <mxCell id="XFiRcjkOXk-194" value="" style="endArrow=none;html=1;rounded=0;" edge="1" parent="1">
          <mxGeometry width="50" height="50" relative="1" as="geometry">
            <mxPoint x="400" y="3230" as="sourcePoint" />
            <mxPoint x="620" y="3230" as="targetPoint" />
          </mxGeometry>
        </mxCell>        <mxCell id="XFiRcjkOXk-195" value="ISTOK_TaskCycleTime" style="rounded=0;whiteSpace=wrap;html=1;" parent="1" vertex="1">
          <mxGeometry x="240" y="3290" width="160" height="40" as="geometry" />
        </mxCell>        <mxCell id="XFiRcjkOXk-196" value="" style="rounded=0;whiteSpace=wrap;html=1;" parent="1" vertex="1">
          <mxGeometry x="620" y="3290" width="40" height="40" as="geometry" />
        </mxCell>        <mxCell id="XFiRcjkOXk-197" value="Функция получения времени на один цикл программы" style="text;html=1;align=center;verticalAlign=middle;whiteSpace=wrap;rounded=0;strokeColor=none;fillColor=default;" vertex="1" parent="1">
          <mxGeometry x="630" y="3289" width="160" height="42" as="geometry" />
        </mxCell>        <mxCell id="XFiRcjkOXk-198" value="" style="endArrow=none;html=1;rounded=0;" edge="1" parent="1">
          <mxGeometry width="50" height="50" relative="1" as="geometry">
            <mxPoint x="200" y="3310" as="sourcePoint" />
            <mxPoint x="240" y="3310" as="targetPoint" />
          </mxGeometry>
        </mxCell>        <mxCell id="XFiRcjkOXk-199" value="" style="endArrow=none;html=1;rounded=0;" edge="1" parent="1">
          <mxGeometry width="50" height="50" relative="1" as="geometry">
            <mxPoint x="400" y="3310" as="sourcePoint" />
            <mxPoint x="620" y="3310" as="targetPoint" />
          </mxGeometry>
        </mxCell>        <mxCell id="XFiRcjkOXk-200" value="" style="endArrow=none;html=1;rounded=0;" edge="1" parent="1">
          <mxGeometry width="50" height="50" relative="1" as="geometry">
            <mxPoint x="200" y="2930" as="sourcePoint" />
            <mxPoint x="200" y="3310" as="targetPoint" />
          </mxGeometry>
        </mxCell>        <mxCell id="XFiRcjkOXk-201" value="Output" style="rounded=0;whiteSpace=wrap;html=1;" parent="1" vertex="1">
          <mxGeometry x="120" y="3370" width="160" height="40" as="geometry" />
        </mxCell>        <mxCell id="XFiRcjkOXk-202" value="" style="rounded=0;whiteSpace=wrap;html=1;" parent="1" vertex="1">
          <mxGeometry x="620" y="3370" width="40" height="40" as="geometry" />
        </mxCell>        <mxCell id="XFiRcjkOXk-203" value="Папка с функциями обработки выходных сигналов" style="text;html=1;align=center;verticalAlign=middle;whiteSpace=wrap;rounded=0;strokeColor=none;fillColor=default;" vertex="1" parent="1">
          <mxGeometry x="630" y="3369" width="160" height="42" as="geometry" />
        </mxCell>        <mxCell id="XFiRcjkOXk-204" value="" style="endArrow=none;html=1;rounded=0;" edge="1" parent="1">
          <mxGeometry width="50" height="50" relative="1" as="geometry">
            <mxPoint x="80" y="3390" as="sourcePoint" />
            <mxPoint x="120" y="3390" as="targetPoint" />
          </mxGeometry>
        </mxCell>        <mxCell id="XFiRcjkOXk-205" value="" style="endArrow=none;html=1;rounded=0;" edge="1" parent="1">
          <mxGeometry width="50" height="50" relative="1" as="geometry">
            <mxPoint x="280" y="3390" as="sourcePoint" />
            <mxPoint x="620" y="3390" as="targetPoint" />
          </mxGeometry>
        </mxCell>        <mxCell id="XFiRcjkOXk-206" value="ALL_Output" style="rounded=0;whiteSpace=wrap;html=1;" parent="1" vertex="1">
          <mxGeometry x="240" y="3580" width="160" height="40" as="geometry" />
        </mxCell>        <mxCell id="XFiRcjkOXk-207" value="" style="rounded=0;whiteSpace=wrap;html=1;" parent="1" vertex="1">
          <mxGeometry x="620" y="3580" width="40" height="40" as="geometry" />
        </mxCell>        <mxCell id="XFiRcjkOXk-208" value="Функции выдачи и обработки выходных сигналов" style="text;html=1;align=center;verticalAlign=middle;whiteSpace=wrap;rounded=0;strokeColor=none;fillColor=default;" vertex="1" parent="1">
          <mxGeometry x="630" y="3579" width="160" height="42" as="geometry" />
        </mxCell>        <mxCell id="XFiRcjkOXk-209" value="" style="endArrow=none;html=1;rounded=0;" edge="1" parent="1">
          <mxGeometry width="50" height="50" relative="1" as="geometry">
            <mxPoint x="200" y="3600" as="sourcePoint" />
            <mxPoint x="240" y="3600" as="targetPoint" />
          </mxGeometry>
        </mxCell>        <mxCell id="XFiRcjkOXk-210" value="" style="endArrow=none;html=1;rounded=0;" edge="1" parent="1">
          <mxGeometry width="50" height="50" relative="1" as="geometry">
            <mxPoint x="400" y="3600" as="sourcePoint" />
            <mxPoint x="620" y="3600" as="targetPoint" />
          </mxGeometry>
        </mxCell>        <mxCell id="XFiRcjkOXk-211" value="AO" style="rounded=0;whiteSpace=wrap;html=1;" parent="1" vertex="1">
          <mxGeometry x="240" y="3660" width="160" height="40" as="geometry" />
        </mxCell>        <mxCell id="XFiRcjkOXk-212" value="" style="rounded=0;whiteSpace=wrap;html=1;" parent="1" vertex="1">
          <mxGeometry x="620" y="3660" width="40" height="40" as="geometry" />
        </mxCell>        <mxCell id="XFiRcjkOXk-213" value="Папка с функциями обработки выходных аналоговых сигналов" style="text;html=1;align=center;verticalAlign=middle;whiteSpace=wrap;rounded=0;strokeColor=none;fillColor=default;" vertex="1" parent="1">
          <mxGeometry x="630" y="3659" width="160" height="42" as="geometry" />
        </mxCell>        <mxCell id="XFiRcjkOXk-214" value="" style="endArrow=none;html=1;rounded=0;" edge="1" parent="1">
          <mxGeometry width="50" height="50" relative="1" as="geometry">
            <mxPoint x="200" y="3680" as="sourcePoint" />
            <mxPoint x="240" y="3680" as="targetPoint" />
          </mxGeometry>
        </mxCell>        <mxCell id="XFiRcjkOXk-215" value="" style="endArrow=none;html=1;rounded=0;" edge="1" parent="1">
          <mxGeometry width="50" height="50" relative="1" as="geometry">
            <mxPoint x="400" y="3680" as="sourcePoint" />
            <mxPoint x="620" y="3680" as="targetPoint" />
          </mxGeometry>
        </mxCell>        <mxCell id="XFiRcjkOXk-216" value="MP1_Z" style="rounded=0;whiteSpace=wrap;html=1;" parent="1" vertex="1">
          <mxGeometry x="360" y="3740" width="160" height="40" as="geometry" />
        </mxCell>        <mxCell id="XFiRcjkOXk-217" value="" style="rounded=0;whiteSpace=wrap;html=1;" parent="1" vertex="1">
          <mxGeometry x="620" y="3740" width="40" height="40" as="geometry" />
        </mxCell>        <mxCell id="XFiRcjkOXk-218" value="Функция обработки задания по частоте для двигателя MP1" style="text;html=1;align=center;verticalAlign=middle;whiteSpace=wrap;rounded=0;strokeColor=none;fillColor=default;" vertex="1" parent="1">
          <mxGeometry x="630" y="3739" width="160" height="42" as="geometry" />
        </mxCell>        <mxCell id="XFiRcjkOXk-219" value="" style="endArrow=none;html=1;rounded=0;" edge="1" parent="1">
          <mxGeometry width="50" height="50" relative="1" as="geometry">
            <mxPoint x="320" y="3760" as="sourcePoint" />
            <mxPoint x="360" y="3760" as="targetPoint" />
          </mxGeometry>
        </mxCell>        <mxCell id="XFiRcjkOXk-220" value="" style="endArrow=none;html=1;rounded=0;" edge="1" parent="1">
          <mxGeometry width="50" height="50" relative="1" as="geometry">
            <mxPoint x="520" y="3760" as="sourcePoint" />
            <mxPoint x="620" y="3760" as="targetPoint" />
          </mxGeometry>
        </mxCell>        <mxCell id="XFiRcjkOXk-221" value="MV1_Z" style="rounded=0;whiteSpace=wrap;html=1;" parent="1" vertex="1">
          <mxGeometry x="360" y="3820" width="160" height="40" as="geometry" />
        </mxCell>        <mxCell id="XFiRcjkOXk-222" value="" style="rounded=0;whiteSpace=wrap;html=1;" parent="1" vertex="1">
          <mxGeometry x="620" y="3820" width="40" height="40" as="geometry" />
        </mxCell>        <mxCell id="XFiRcjkOXk-223" value="Функция обработки задания по частоте для двигателя MV1" style="text;html=1;align=center;verticalAlign=middle;whiteSpace=wrap;rounded=0;strokeColor=none;fillColor=default;" vertex="1" parent="1">
          <mxGeometry x="630" y="3819" width="160" height="42" as="geometry" />
        </mxCell>        <mxCell id="XFiRcjkOXk-224" value="" style="endArrow=none;html=1;rounded=0;" edge="1" parent="1">
          <mxGeometry width="50" height="50" relative="1" as="geometry">
            <mxPoint x="320" y="3840" as="sourcePoint" />
            <mxPoint x="360" y="3840" as="targetPoint" />
          </mxGeometry>
        </mxCell>        <mxCell id="XFiRcjkOXk-225" value="" style="endArrow=none;html=1;rounded=0;" edge="1" parent="1">
          <mxGeometry width="50" height="50" relative="1" as="geometry">
            <mxPoint x="520" y="3840" as="sourcePoint" />
            <mxPoint x="620" y="3840" as="targetPoint" />
          </mxGeometry>
        </mxCell>        <mxCell id="XFiRcjkOXk-226" value="RQ1_Z" style="rounded=0;whiteSpace=wrap;html=1;" parent="1" vertex="1">
          <mxGeometry x="360" y="3900" width="160" height="40" as="geometry" />
        </mxCell>        <mxCell id="XFiRcjkOXk-227" value="" style="rounded=0;whiteSpace=wrap;html=1;" parent="1" vertex="1">
          <mxGeometry x="620" y="3900" width="40" height="40" as="geometry" />
        </mxCell>        <mxCell id="XFiRcjkOXk-228" value="Функция обработки задания на рекуператор RQ1" style="text;html=1;align=center;verticalAlign=middle;whiteSpace=wrap;rounded=0;strokeColor=none;fillColor=default;" vertex="1" parent="1">
          <mxGeometry x="630" y="3899" width="160" height="42" as="geometry" />
        </mxCell>        <mxCell id="XFiRcjkOXk-229" value="" style="endArrow=none;html=1;rounded=0;" edge="1" parent="1">
          <mxGeometry width="50" height="50" relative="1" as="geometry">
            <mxPoint x="320" y="3920" as="sourcePoint" />
            <mxPoint x="360" y="3920" as="targetPoint" />
          </mxGeometry>
        </mxCell>        <mxCell id="XFiRcjkOXk-230" value="" style="endArrow=none;html=1;rounded=0;" edge="1" parent="1">
          <mxGeometry width="50" height="50" relative="1" as="geometry">
            <mxPoint x="520" y="3920" as="sourcePoint" />
            <mxPoint x="620" y="3920" as="targetPoint" />
          </mxGeometry>
        </mxCell>        <mxCell id="XFiRcjkOXk-231" value="YA3_Z" style="rounded=0;whiteSpace=wrap;html=1;" parent="1" vertex="1">
          <mxGeometry x="360" y="3980" width="160" height="40" as="geometry" />
        </mxCell>        <mxCell id="XFiRcjkOXk-232" value="" style="rounded=0;whiteSpace=wrap;html=1;" parent="1" vertex="1">
          <mxGeometry x="620" y="3980" width="40" height="40" as="geometry" />
        </mxCell>        <mxCell id="XFiRcjkOXk-233" value="Функция обработки задания по положению для клапана YA3" style="text;html=1;align=center;verticalAlign=middle;whiteSpace=wrap;rounded=0;strokeColor=none;fillColor=default;" vertex="1" parent="1">
          <mxGeometry x="630" y="3979" width="160" height="42" as="geometry" />
        </mxCell>        <mxCell id="XFiRcjkOXk-234" value="" style="endArrow=none;html=1;rounded=0;" edge="1" parent="1">
          <mxGeometry width="50" height="50" relative="1" as="geometry">
            <mxPoint x="320" y="4000" as="sourcePoint" />
            <mxPoint x="360" y="4000" as="targetPoint" />
          </mxGeometry>
        </mxCell>        <mxCell id="XFiRcjkOXk-235" value="" style="endArrow=none;html=1;rounded=0;" edge="1" parent="1">
          <mxGeometry width="50" height="50" relative="1" as="geometry">
            <mxPoint x="520" y="4000" as="sourcePoint" />
            <mxPoint x="620" y="4000" as="targetPoint" />
          </mxGeometry>
        </mxCell>        <mxCell id="XFiRcjkOXk-236" value="YA4_Z" style="rounded=0;whiteSpace=wrap;html=1;" parent="1" vertex="1">
          <mxGeometry x="360" y="4060" width="160" height="40" as="geometry" />
        </mxCell>        <mxCell id="XFiRcjkOXk-237" value="" style="rounded=0;whiteSpace=wrap;html=1;" parent="1" vertex="1">
          <mxGeometry x="620" y="4060" width="40" height="40" as="geometry" />
        </mxCell>        <mxCell id="XFiRcjkOXk-238" value="Функция обработки задания по положению для клапана YA4" style="text;html=1;align=center;verticalAlign=middle;whiteSpace=wrap;rounded=0;strokeColor=none;fillColor=default;" vertex="1" parent="1">
          <mxGeometry x="630" y="4059" width="160" height="42" as="geometry" />
        </mxCell>        <mxCell id="XFiRcjkOXk-239" value="" style="endArrow=none;html=1;rounded=0;" edge="1" parent="1">
          <mxGeometry width="50" height="50" relative="1" as="geometry">
            <mxPoint x="320" y="4080" as="sourcePoint" />
            <mxPoint x="360" y="4080" as="targetPoint" />
          </mxGeometry>
        </mxCell>        <mxCell id="XFiRcjkOXk-240" value="" style="endArrow=none;html=1;rounded=0;" edge="1" parent="1">
          <mxGeometry width="50" height="50" relative="1" as="geometry">
            <mxPoint x="520" y="4080" as="sourcePoint" />
            <mxPoint x="620" y="4080" as="targetPoint" />
          </mxGeometry>
        </mxCell>        <mxCell id="XFiRcjkOXk-241" value="" style="endArrow=none;html=1;rounded=0;" edge="1" parent="1">
          <mxGeometry width="50" height="50" relative="1" as="geometry">
            <mxPoint x="320" y="3700" as="sourcePoint" />
            <mxPoint x="320" y="4080" as="targetPoint" />
          </mxGeometry>
        </mxCell>        <mxCell id="XFiRcjkOXk-242" value="" style="endArrow=none;html=1;rounded=0;" edge="1" parent="1">
          <mxGeometry width="50" height="50" relative="1" as="geometry">
            <mxPoint x="200" y="3410" as="sourcePoint" />
            <mxPoint x="200" y="3420" as="targetPoint" />
          </mxGeometry>
        </mxCell>        <mxCell id="XFiRcjkOXk-243" value="4" style="ellipse;whiteSpace=wrap;html=1;aspect=fixed;" vertex="1" parent="1">
          <mxGeometry x="180" y="3420" width="40" height="40" as="geometry" />
        </mxCell>        <mxCell id="XFiRcjkOXk-244" value="4" style="ellipse;whiteSpace=wrap;html=1;aspect=fixed;" vertex="1" parent="1">
          <mxGeometry x="180" y="3540" width="40" height="40" as="geometry" />
        </mxCell>        <mxCell id="XFiRcjkOXk-245" value="" style="endArrow=none;html=1;rounded=0;" edge="1" parent="1">
          <mxGeometry width="50" height="50" relative="1" as="geometry">
            <mxPoint x="200" y="3580" as="sourcePoint" />
            <mxPoint x="200" y="3680" as="targetPoint" />
          </mxGeometry>
        </mxCell>        <mxCell id="XFiRcjkOXk-246" value="Regim" style="rounded=0;whiteSpace=wrap;html=1;" parent="1" vertex="1">
          <mxGeometry x="120" y="4140" width="160" height="40" as="geometry" />
        </mxCell>        <mxCell id="XFiRcjkOXk-247" value="" style="rounded=0;whiteSpace=wrap;html=1;" parent="1" vertex="1">
          <mxGeometry x="620" y="4140" width="40" height="40" as="geometry" />
        </mxCell>        <mxCell id="XFiRcjkOXk-248" value="Папка с функциями включения режимов" style="text;html=1;align=center;verticalAlign=middle;whiteSpace=wrap;rounded=0;strokeColor=none;fillColor=default;" vertex="1" parent="1">
          <mxGeometry x="630" y="4139" width="160" height="42" as="geometry" />
        </mxCell>        <mxCell id="XFiRcjkOXk-249" value="" style="endArrow=none;html=1;rounded=0;" edge="1" parent="1">
          <mxGeometry width="50" height="50" relative="1" as="geometry">
            <mxPoint x="80" y="4160" as="sourcePoint" />
            <mxPoint x="120" y="4160" as="targetPoint" />
          </mxGeometry>
        </mxCell>        <mxCell id="XFiRcjkOXk-250" value="" style="endArrow=none;html=1;rounded=0;" edge="1" parent="1">
          <mxGeometry width="50" height="50" relative="1" as="geometry">
            <mxPoint x="280" y="4160" as="sourcePoint" />
            <mxPoint x="620" y="4160" as="targetPoint" />
          </mxGeometry>
        </mxCell>        <mxCell id="XFiRcjkOXk-251" value="ALL_Regim" style="rounded=0;whiteSpace=wrap;html=1;" parent="1" vertex="1">
          <mxGeometry x="240" y="4220" width="160" height="40" as="geometry" />
        </mxCell>        <mxCell id="XFiRcjkOXk-252" value="" style="rounded=0;whiteSpace=wrap;html=1;" parent="1" vertex="1">
          <mxGeometry x="620" y="4220" width="40" height="40" as="geometry" />
        </mxCell>        <mxCell id="XFiRcjkOXk-253" value="Функции включения режимов" style="text;html=1;align=center;verticalAlign=middle;whiteSpace=wrap;rounded=0;strokeColor=none;fillColor=default;" vertex="1" parent="1">
          <mxGeometry x="630" y="4219" width="160" height="42" as="geometry" />
        </mxCell>        <mxCell id="XFiRcjkOXk-254" value="" style="endArrow=none;html=1;rounded=0;" edge="1" parent="1">
          <mxGeometry width="50" height="50" relative="1" as="geometry">
            <mxPoint x="200" y="4240" as="sourcePoint" />
            <mxPoint x="240" y="4240" as="targetPoint" />
          </mxGeometry>
        </mxCell>        <mxCell id="XFiRcjkOXk-255" value="" style="endArrow=none;html=1;rounded=0;" edge="1" parent="1">
          <mxGeometry width="50" height="50" relative="1" as="geometry">
            <mxPoint x="400" y="4240" as="sourcePoint" />
            <mxPoint x="620" y="4240" as="targetPoint" />
          </mxGeometry>
        </mxCell>        <mxCell id="XFiRcjkOXk-256" value="Ostanov" style="rounded=0;whiteSpace=wrap;html=1;" parent="1" vertex="1">
          <mxGeometry x="240" y="4300" width="160" height="40" as="geometry" />
        </mxCell>        <mxCell id="XFiRcjkOXk-257" value="" style="rounded=0;whiteSpace=wrap;html=1;" parent="1" vertex="1">
          <mxGeometry x="620" y="4300" width="40" height="40" as="geometry" />
        </mxCell>        <mxCell id="XFiRcjkOXk-258" value="Функция выбора режима &quot;ОСТАНОВ&quot;" style="text;html=1;align=center;verticalAlign=middle;whiteSpace=wrap;rounded=0;strokeColor=none;fillColor=default;" vertex="1" parent="1">
          <mxGeometry x="630" y="4299" width="160" height="42" as="geometry" />
        </mxCell>        <mxCell id="XFiRcjkOXk-259" value="" style="endArrow=none;html=1;rounded=0;" edge="1" parent="1">
          <mxGeometry width="50" height="50" relative="1" as="geometry">
            <mxPoint x="200" y="4320" as="sourcePoint" />
            <mxPoint x="240" y="4320" as="targetPoint" />
          </mxGeometry>
        </mxCell>        <mxCell id="XFiRcjkOXk-260" value="" style="endArrow=none;html=1;rounded=0;" edge="1" parent="1">
          <mxGeometry width="50" height="50" relative="1" as="geometry">
            <mxPoint x="400" y="4320" as="sourcePoint" />
            <mxPoint x="620" y="4320" as="targetPoint" />
          </mxGeometry>
        </mxCell>        <mxCell id="XFiRcjkOXk-261" value="Progrev" style="rounded=0;whiteSpace=wrap;html=1;" parent="1" vertex="1">
          <mxGeometry x="240" y="4380" width="160" height="40" as="geometry" />
        </mxCell>        <mxCell id="XFiRcjkOXk-262" value="" style="rounded=0;whiteSpace=wrap;html=1;" parent="1" vertex="1">
          <mxGeometry x="620" y="4380" width="40" height="40" as="geometry" />
        </mxCell>        <mxCell id="XFiRcjkOXk-263" value="Функция выбора режима &quot;ПРОГРЕВ&quot;" style="text;html=1;align=center;verticalAlign=middle;whiteSpace=wrap;rounded=0;strokeColor=none;fillColor=default;" vertex="1" parent="1">
          <mxGeometry x="630" y="4379" width="160" height="42" as="geometry" />
        </mxCell>        <mxCell id="XFiRcjkOXk-264" value="" style="endArrow=none;html=1;rounded=0;" edge="1" parent="1">
          <mxGeometry width="50" height="50" relative="1" as="geometry">
            <mxPoint x="200" y="4400" as="sourcePoint" />
            <mxPoint x="240" y="4400" as="targetPoint" />
          </mxGeometry>
        </mxCell>        <mxCell id="XFiRcjkOXk-265" value="" style="endArrow=none;html=1;rounded=0;" edge="1" parent="1">
          <mxGeometry width="50" height="50" relative="1" as="geometry">
            <mxPoint x="400" y="4400" as="sourcePoint" />
            <mxPoint x="620" y="4400" as="targetPoint" />
          </mxGeometry>
        </mxCell>        <mxCell id="XFiRcjkOXk-266" value="Pusk" style="rounded=0;whiteSpace=wrap;html=1;" parent="1" vertex="1">
          <mxGeometry x="240" y="4460" width="160" height="40" as="geometry" />
        </mxCell>        <mxCell id="XFiRcjkOXk-267" value="" style="rounded=0;whiteSpace=wrap;html=1;" parent="1" vertex="1">
          <mxGeometry x="620" y="4460" width="40" height="40" as="geometry" />
        </mxCell>        <mxCell id="XFiRcjkOXk-268" value="Функция выбора режима &quot;ПУСК&quot;" style="text;html=1;align=center;verticalAlign=middle;whiteSpace=wrap;rounded=0;strokeColor=none;fillColor=default;" vertex="1" parent="1">
          <mxGeometry x="630" y="4459" width="160" height="42" as="geometry" />
        </mxCell>        <mxCell id="XFiRcjkOXk-269" value="" style="endArrow=none;html=1;rounded=0;" edge="1" parent="1">
          <mxGeometry width="50" height="50" relative="1" as="geometry">
            <mxPoint x="200" y="4480" as="sourcePoint" />
            <mxPoint x="240" y="4480" as="targetPoint" />
          </mxGeometry>
        </mxCell>        <mxCell id="XFiRcjkOXk-270" value="" style="endArrow=none;html=1;rounded=0;" edge="1" parent="1">
          <mxGeometry width="50" height="50" relative="1" as="geometry">
            <mxPoint x="400" y="4480" as="sourcePoint" />
            <mxPoint x="620" y="4480" as="targetPoint" />
          </mxGeometry>
        </mxCell>        <mxCell id="XFiRcjkOXk-271" value="Rabota" style="rounded=0;whiteSpace=wrap;html=1;" parent="1" vertex="1">
          <mxGeometry x="240" y="4540" width="160" height="40" as="geometry" />
        </mxCell>        <mxCell id="XFiRcjkOXk-272" value="" style="rounded=0;whiteSpace=wrap;html=1;" parent="1" vertex="1">
          <mxGeometry x="620" y="4540" width="40" height="40" as="geometry" />
        </mxCell>        <mxCell id="XFiRcjkOXk-273" value="Функция выбора режима &quot;РАБОТА&quot;" style="text;html=1;align=center;verticalAlign=middle;whiteSpace=wrap;rounded=0;strokeColor=none;fillColor=default;" vertex="1" parent="1">
          <mxGeometry x="630" y="4539" width="160" height="42" as="geometry" />
        </mxCell>        <mxCell id="XFiRcjkOXk-274" value="" style="endArrow=none;html=1;rounded=0;" edge="1" parent="1">
          <mxGeometry width="50" height="50" relative="1" as="geometry">
            <mxPoint x="200" y="4560" as="sourcePoint" />
            <mxPoint x="240" y="4560" as="targetPoint" />
          </mxGeometry>
        </mxCell>        <mxCell id="XFiRcjkOXk-275" value="" style="endArrow=none;html=1;rounded=0;" edge="1" parent="1">
          <mxGeometry width="50" height="50" relative="1" as="geometry">
            <mxPoint x="400" y="4560" as="sourcePoint" />
            <mxPoint x="620" y="4560" as="targetPoint" />
          </mxGeometry>
        </mxCell>        <mxCell id="XFiRcjkOXk-276" value="Sezon" style="rounded=0;whiteSpace=wrap;html=1;" parent="1" vertex="1">
          <mxGeometry x="240" y="4750" width="160" height="40" as="geometry" />
        </mxCell>        <mxCell id="XFiRcjkOXk-277" value="" style="rounded=0;whiteSpace=wrap;html=1;" parent="1" vertex="1">
          <mxGeometry x="620" y="4750" width="40" height="40" as="geometry" />
        </mxCell>        <mxCell id="XFiRcjkOXk-278" value="Функция выбора сезона работы &quot;ЗИМА/ЛЕТО&quot;" style="text;html=1;align=center;verticalAlign=middle;whiteSpace=wrap;rounded=0;strokeColor=none;fillColor=default;" vertex="1" parent="1">
          <mxGeometry x="630" y="4749" width="160" height="42" as="geometry" />
        </mxCell>        <mxCell id="XFiRcjkOXk-279" value="" style="endArrow=none;html=1;rounded=0;" edge="1" parent="1">
          <mxGeometry width="50" height="50" relative="1" as="geometry">
            <mxPoint x="200" y="4770" as="sourcePoint" />
            <mxPoint x="240" y="4770" as="targetPoint" />
          </mxGeometry>
        </mxCell>        <mxCell id="XFiRcjkOXk-280" value="" style="endArrow=none;html=1;rounded=0;" edge="1" parent="1">
          <mxGeometry width="50" height="50" relative="1" as="geometry">
            <mxPoint x="400" y="4770" as="sourcePoint" />
            <mxPoint x="620" y="4770" as="targetPoint" />
          </mxGeometry>
        </mxCell>        <mxCell id="XFiRcjkOXk-281" value="Sost" style="rounded=0;whiteSpace=wrap;html=1;" parent="1" vertex="1">
          <mxGeometry x="240" y="4830" width="160" height="40" as="geometry" />
        </mxCell>        <mxCell id="XFiRcjkOXk-282" value="" style="rounded=0;whiteSpace=wrap;html=1;" parent="1" vertex="1">
          <mxGeometry x="620" y="4830" width="40" height="40" as="geometry" />
        </mxCell>        <mxCell id="XFiRcjkOXk-283" value="Функция &quot;ВКЛ/ВЫКЛ&quot; установки" style="text;html=1;align=center;verticalAlign=middle;whiteSpace=wrap;rounded=0;strokeColor=none;fillColor=default;" vertex="1" parent="1">
          <mxGeometry x="630" y="4829" width="160" height="42" as="geometry" />
        </mxCell>        <mxCell id="XFiRcjkOXk-284" value="" style="endArrow=none;html=1;rounded=0;" edge="1" parent="1">
          <mxGeometry width="50" height="50" relative="1" as="geometry">
            <mxPoint x="200" y="4850" as="sourcePoint" />
            <mxPoint x="240" y="4850" as="targetPoint" />
          </mxGeometry>
        </mxCell>        <mxCell id="XFiRcjkOXk-285" value="" style="endArrow=none;html=1;rounded=0;" edge="1" parent="1">
          <mxGeometry width="50" height="50" relative="1" as="geometry">
            <mxPoint x="400" y="4850" as="sourcePoint" />
            <mxPoint x="620" y="4850" as="targetPoint" />
          </mxGeometry>
        </mxCell>        <mxCell id="XFiRcjkOXk-286" value="Stop" style="rounded=0;whiteSpace=wrap;html=1;" parent="1" vertex="1">
          <mxGeometry x="240" y="4910" width="160" height="40" as="geometry" />
        </mxCell>        <mxCell id="XFiRcjkOXk-287" value="" style="rounded=0;whiteSpace=wrap;html=1;" parent="1" vertex="1">
          <mxGeometry x="620" y="4910" width="40" height="40" as="geometry" />
        </mxCell>        <mxCell id="XFiRcjkOXk-288" value="Функция выбора режима &quot;СТОП&quot;" style="text;html=1;align=center;verticalAlign=middle;whiteSpace=wrap;rounded=0;strokeColor=none;fillColor=default;" vertex="1" parent="1">
          <mxGeometry x="630" y="4909" width="160" height="42" as="geometry" />
        </mxCell>        <mxCell id="XFiRcjkOXk-289" value="" style="endArrow=none;html=1;rounded=0;" edge="1" parent="1">
          <mxGeometry width="50" height="50" relative="1" as="geometry">
            <mxPoint x="200" y="4930" as="sourcePoint" />
            <mxPoint x="240" y="4930" as="targetPoint" />
          </mxGeometry>
        </mxCell>        <mxCell id="XFiRcjkOXk-290" value="" style="endArrow=none;html=1;rounded=0;" edge="1" parent="1">
          <mxGeometry width="50" height="50" relative="1" as="geometry">
            <mxPoint x="400" y="4930" as="sourcePoint" />
            <mxPoint x="620" y="4930" as="targetPoint" />
          </mxGeometry>
        </mxCell>        <mxCell id="XFiRcjkOXk-291" value="" style="endArrow=none;html=1;rounded=0;" edge="1" parent="1">
          <mxGeometry width="50" height="50" relative="1" as="geometry">
            <mxPoint x="200" y="4180" as="sourcePoint" />
            <mxPoint x="200" y="4590" as="targetPoint" />
          </mxGeometry>
        </mxCell>        <mxCell id="XFiRcjkOXk-292" value="5" style="ellipse;whiteSpace=wrap;html=1;aspect=fixed;" vertex="1" parent="1">
          <mxGeometry x="180" y="4590" width="40" height="40" as="geometry" />
        </mxCell>        <mxCell id="XFiRcjkOXk-293" value="5" style="ellipse;whiteSpace=wrap;html=1;aspect=fixed;" vertex="1" parent="1">
          <mxGeometry x="180" y="4710" width="40" height="40" as="geometry" />
        </mxCell>        <mxCell id="XFiRcjkOXk-294" value="" style="endArrow=none;html=1;rounded=0;" edge="1" parent="1">
          <mxGeometry width="50" height="50" relative="1" as="geometry">
            <mxPoint x="200" y="4750" as="sourcePoint" />
            <mxPoint x="200" y="4930" as="targetPoint" />
          </mxGeometry>
        </mxCell>        <mxCell id="XFiRcjkOXk-295" value="TZBiS" style="rounded=0;whiteSpace=wrap;html=1;" parent="1" vertex="1">
          <mxGeometry x="120" y="4990" width="160" height="40" as="geometry" />
        </mxCell>        <mxCell id="XFiRcjkOXk-296" value="" style="rounded=0;whiteSpace=wrap;html=1;" parent="1" vertex="1">
          <mxGeometry x="620" y="4990" width="40" height="40" as="geometry" />
        </mxCell>        <mxCell id="XFiRcjkOXk-297" value="Папка с функциями защит и сигнализаций" style="text;html=1;align=center;verticalAlign=middle;whiteSpace=wrap;rounded=0;strokeColor=none;fillColor=default;" vertex="1" parent="1">
          <mxGeometry x="630" y="4989" width="160" height="42" as="geometry" />
        </mxCell>        <mxCell id="XFiRcjkOXk-298" value="" style="endArrow=none;html=1;rounded=0;" edge="1" parent="1">
          <mxGeometry width="50" height="50" relative="1" as="geometry">
            <mxPoint x="80" y="5010" as="sourcePoint" />
            <mxPoint x="120" y="5010" as="targetPoint" />
          </mxGeometry>
        </mxCell>        <mxCell id="XFiRcjkOXk-299" value="" style="endArrow=none;html=1;rounded=0;" edge="1" parent="1">
          <mxGeometry width="50" height="50" relative="1" as="geometry">
            <mxPoint x="280" y="5010" as="sourcePoint" />
            <mxPoint x="620" y="5010" as="targetPoint" />
          </mxGeometry>
        </mxCell>        <mxCell id="XFiRcjkOXk-300" value="S" style="rounded=0;whiteSpace=wrap;html=1;" parent="1" vertex="1">
          <mxGeometry x="240" y="5070" width="160" height="40" as="geometry" />
        </mxCell>        <mxCell id="XFiRcjkOXk-301" value="" style="rounded=0;whiteSpace=wrap;html=1;" parent="1" vertex="1">
          <mxGeometry x="620" y="5070" width="40" height="40" as="geometry" />
        </mxCell>        <mxCell id="XFiRcjkOXk-302" value="Папка с функциями сигнализаций" style="text;html=1;align=center;verticalAlign=middle;whiteSpace=wrap;rounded=0;strokeColor=none;fillColor=default;" vertex="1" parent="1">
          <mxGeometry x="630" y="5069" width="160" height="42" as="geometry" />
        </mxCell>        <mxCell id="XFiRcjkOXk-303" value="" style="endArrow=none;html=1;rounded=0;" edge="1" parent="1">
          <mxGeometry width="50" height="50" relative="1" as="geometry">
            <mxPoint x="200" y="5090" as="sourcePoint" />
            <mxPoint x="240" y="5090" as="targetPoint" />
          </mxGeometry>
        </mxCell>        <mxCell id="XFiRcjkOXk-304" value="" style="endArrow=none;html=1;rounded=0;" edge="1" parent="1">
          <mxGeometry width="50" height="50" relative="1" as="geometry">
            <mxPoint x="400" y="5090" as="sourcePoint" />
            <mxPoint x="620" y="5090" as="targetPoint" />
          </mxGeometry>
        </mxCell>        <mxCell id="XFiRcjkOXk-305" value="ALL_S" style="rounded=0;whiteSpace=wrap;html=1;" parent="1" vertex="1">
          <mxGeometry x="360" y="5150" width="160" height="40" as="geometry" />
        </mxCell>        <mxCell id="XFiRcjkOXk-306" value="" style="rounded=0;whiteSpace=wrap;html=1;" parent="1" vertex="1">
          <mxGeometry x="620" y="5150" width="40" height="40" as="geometry" />
        </mxCell>        <mxCell id="XFiRcjkOXk-307" value="Функции отслеживания сигнализаций" style="text;html=1;align=center;verticalAlign=middle;whiteSpace=wrap;rounded=0;strokeColor=none;fillColor=default;" vertex="1" parent="1">
          <mxGeometry x="630" y="5149" width="160" height="42" as="geometry" />
        </mxCell>        <mxCell id="XFiRcjkOXk-308" value="" style="endArrow=none;html=1;rounded=0;" edge="1" parent="1">
          <mxGeometry width="50" height="50" relative="1" as="geometry">
            <mxPoint x="320" y="5170" as="sourcePoint" />
            <mxPoint x="360" y="5170" as="targetPoint" />
          </mxGeometry>
        </mxCell>        <mxCell id="XFiRcjkOXk-309" value="" style="endArrow=none;html=1;rounded=0;" edge="1" parent="1">
          <mxGeometry width="50" height="50" relative="1" as="geometry">
            <mxPoint x="520" y="5170" as="sourcePoint" />
            <mxPoint x="620" y="5170" as="targetPoint" />
          </mxGeometry>
        </mxCell>        <mxCell id="XFiRcjkOXk-310" value="GVS1_R" style="rounded=0;whiteSpace=wrap;html=1;" parent="1" vertex="1">
          <mxGeometry x="360" y="5230" width="160" height="40" as="geometry" />
        </mxCell>        <mxCell id="XFiRcjkOXk-311" value="" style="rounded=0;whiteSpace=wrap;html=1;" parent="1" vertex="1">
          <mxGeometry x="620" y="5230" width="40" height="40" as="geometry" />
        </mxCell>        <mxCell id="XFiRcjkOXk-312" value="Функция сигнализации работы ГВС1" style="text;html=1;align=center;verticalAlign=middle;whiteSpace=wrap;rounded=0;strokeColor=none;fillColor=default;" vertex="1" parent="1">
          <mxGeometry x="630" y="5229" width="160" height="42" as="geometry" />
        </mxCell>        <mxCell id="XFiRcjkOXk-313" value="" style="endArrow=none;html=1;rounded=0;" edge="1" parent="1">
          <mxGeometry width="50" height="50" relative="1" as="geometry">
            <mxPoint x="320" y="5250" as="sourcePoint" />
            <mxPoint x="360" y="5250" as="targetPoint" />
          </mxGeometry>
        </mxCell>        <mxCell id="XFiRcjkOXk-314" value="" style="endArrow=none;html=1;rounded=0;" edge="1" parent="1">
          <mxGeometry width="50" height="50" relative="1" as="geometry">
            <mxPoint x="520" y="5250" as="sourcePoint" />
            <mxPoint x="620" y="5250" as="targetPoint" />
          </mxGeometry>
        </mxCell>        <mxCell id="XFiRcjkOXk-315" value="HVS_R" style="rounded=0;whiteSpace=wrap;html=1;" parent="1" vertex="1">
          <mxGeometry x="360" y="5310" width="160" height="40" as="geometry" />
        </mxCell>        <mxCell id="XFiRcjkOXk-316" value="" style="rounded=0;whiteSpace=wrap;html=1;" parent="1" vertex="1">
          <mxGeometry x="620" y="5310" width="40" height="40" as="geometry" />
        </mxCell>        <mxCell id="XFiRcjkOXk-317" value="Функция сигнализации работы ХВС" style="text;html=1;align=center;verticalAlign=middle;whiteSpace=wrap;rounded=0;strokeColor=none;fillColor=default;" vertex="1" parent="1">
          <mxGeometry x="630" y="5309" width="160" height="42" as="geometry" />
        </mxCell>        <mxCell id="XFiRcjkOXk-318" value="" style="endArrow=none;html=1;rounded=0;" edge="1" parent="1">
          <mxGeometry width="50" height="50" relative="1" as="geometry">
            <mxPoint x="320" y="5330" as="sourcePoint" />
            <mxPoint x="360" y="5330" as="targetPoint" />
          </mxGeometry>
        </mxCell>        <mxCell id="XFiRcjkOXk-319" value="" style="endArrow=none;html=1;rounded=0;" edge="1" parent="1">
          <mxGeometry width="50" height="50" relative="1" as="geometry">
            <mxPoint x="520" y="5330" as="sourcePoint" />
            <mxPoint x="620" y="5330" as="targetPoint" />
          </mxGeometry>
        </mxCell>        <mxCell id="XFiRcjkOXk-320" value="S_STER_REG" style="rounded=0;whiteSpace=wrap;html=1;" parent="1" vertex="1">
          <mxGeometry x="360" y="5390" width="160" height="40" as="geometry" />
        </mxCell>        <mxCell id="XFiRcjkOXk-321" value="" style="rounded=0;whiteSpace=wrap;html=1;" parent="1" vertex="1">
          <mxGeometry x="620" y="5390" width="40" height="40" as="geometry" />
        </mxCell>        <mxCell id="XFiRcjkOXk-322" value="Функция сигнализации работы стерегущего режима" style="text;html=1;align=center;verticalAlign=middle;whiteSpace=wrap;rounded=0;strokeColor=none;fillColor=default;" vertex="1" parent="1">
          <mxGeometry x="630" y="5389" width="160" height="42" as="geometry" />
        </mxCell>        <mxCell id="XFiRcjkOXk-323" value="" style="endArrow=none;html=1;rounded=0;" edge="1" parent="1">
          <mxGeometry width="50" height="50" relative="1" as="geometry">
            <mxPoint x="320" y="5410" as="sourcePoint" />
            <mxPoint x="360" y="5410" as="targetPoint" />
          </mxGeometry>
        </mxCell>        <mxCell id="XFiRcjkOXk-324" value="" style="endArrow=none;html=1;rounded=0;" edge="1" parent="1">
          <mxGeometry width="50" height="50" relative="1" as="geometry">
            <mxPoint x="520" y="5410" as="sourcePoint" />
            <mxPoint x="620" y="5410" as="targetPoint" />
          </mxGeometry>
        </mxCell>        <mxCell id="XFiRcjkOXk-325" value="S_ZAM" style="rounded=0;whiteSpace=wrap;html=1;" parent="1" vertex="1">
          <mxGeometry x="360" y="5470" width="160" height="40" as="geometry" />
        </mxCell>        <mxCell id="XFiRcjkOXk-326" value="" style="rounded=0;whiteSpace=wrap;html=1;" parent="1" vertex="1">
          <mxGeometry x="620" y="5470" width="40" height="40" as="geometry" />
        </mxCell>        <mxCell id="XFiRcjkOXk-327" value="Функция сигнализации заморозки" style="text;html=1;align=center;verticalAlign=middle;whiteSpace=wrap;rounded=0;strokeColor=none;fillColor=default;" vertex="1" parent="1">
          <mxGeometry x="630" y="5469" width="160" height="42" as="geometry" />
        </mxCell>        <mxCell id="XFiRcjkOXk-328" value="" style="endArrow=none;html=1;rounded=0;" edge="1" parent="1">
          <mxGeometry width="50" height="50" relative="1" as="geometry">
            <mxPoint x="320" y="5490" as="sourcePoint" />
            <mxPoint x="360" y="5490" as="targetPoint" />
          </mxGeometry>
        </mxCell>        <mxCell id="XFiRcjkOXk-329" value="" style="endArrow=none;html=1;rounded=0;" edge="1" parent="1">
          <mxGeometry width="50" height="50" relative="1" as="geometry">
            <mxPoint x="520" y="5490" as="sourcePoint" />
            <mxPoint x="620" y="5490" as="targetPoint" />
          </mxGeometry>
        </mxCell>        <mxCell id="XFiRcjkOXk-330" value="" style="endArrow=none;html=1;rounded=0;" edge="1" parent="1">
          <mxGeometry width="50" height="50" relative="1" as="geometry">
            <mxPoint x="320" y="5110" as="sourcePoint" />
            <mxPoint x="320" y="5490" as="targetPoint" />
          </mxGeometry>
        </mxCell>        <mxCell id="XFiRcjkOXk-331" value="TZB" style="rounded=0;whiteSpace=wrap;html=1;" parent="1" vertex="1">
          <mxGeometry x="240" y="5550" width="160" height="40" as="geometry" />
        </mxCell>        <mxCell id="XFiRcjkOXk-332" value="" style="rounded=0;whiteSpace=wrap;html=1;" parent="1" vertex="1">
          <mxGeometry x="620" y="5550" width="40" height="40" as="geometry" />
        </mxCell>        <mxCell id="XFiRcjkOXk-333" value="Папка с функциями защит" style="text;html=1;align=center;verticalAlign=middle;whiteSpace=wrap;rounded=0;strokeColor=none;fillColor=default;" vertex="1" parent="1">
          <mxGeometry x="630" y="5549" width="160" height="42" as="geometry" />
        </mxCell>        <mxCell id="XFiRcjkOXk-334" value="" style="endArrow=none;html=1;rounded=0;" edge="1" parent="1">
          <mxGeometry width="50" height="50" relative="1" as="geometry">
            <mxPoint x="200" y="5570" as="sourcePoint" />
            <mxPoint x="240" y="5570" as="targetPoint" />
          </mxGeometry>
        </mxCell>        <mxCell id="XFiRcjkOXk-335" value="" style="endArrow=none;html=1;rounded=0;" edge="1" parent="1">
          <mxGeometry width="50" height="50" relative="1" as="geometry">
            <mxPoint x="400" y="5570" as="sourcePoint" />
            <mxPoint x="620" y="5570" as="targetPoint" />
          </mxGeometry>
        </mxCell>        <mxCell id="XFiRcjkOXk-336" value="ALL_TZB" style="rounded=0;whiteSpace=wrap;html=1;" parent="1" vertex="1">
          <mxGeometry x="360" y="5630" width="160" height="40" as="geometry" />
        </mxCell>        <mxCell id="XFiRcjkOXk-337" value="" style="rounded=0;whiteSpace=wrap;html=1;" parent="1" vertex="1">
          <mxGeometry x="620" y="5630" width="40" height="40" as="geometry" />
        </mxCell>        <mxCell id="XFiRcjkOXk-338" value="Функции отслеживания защит" style="text;html=1;align=center;verticalAlign=middle;whiteSpace=wrap;rounded=0;strokeColor=none;fillColor=default;" vertex="1" parent="1">
          <mxGeometry x="630" y="5629" width="160" height="42" as="geometry" />
        </mxCell>        <mxCell id="XFiRcjkOXk-339" value="" style="endArrow=none;html=1;rounded=0;" edge="1" parent="1">
          <mxGeometry width="50" height="50" relative="1" as="geometry">
            <mxPoint x="320" y="5650" as="sourcePoint" />
            <mxPoint x="360" y="5650" as="targetPoint" />
          </mxGeometry>
        </mxCell>        <mxCell id="XFiRcjkOXk-340" value="" style="endArrow=none;html=1;rounded=0;" edge="1" parent="1">
          <mxGeometry width="50" height="50" relative="1" as="geometry">
            <mxPoint x="520" y="5650" as="sourcePoint" />
            <mxPoint x="620" y="5650" as="targetPoint" />
          </mxGeometry>
        </mxCell>        <mxCell id="XFiRcjkOXk-341" value="Sbros_All" style="rounded=0;whiteSpace=wrap;html=1;" parent="1" vertex="1">
          <mxGeometry x="360" y="5710" width="160" height="40" as="geometry" />
        </mxCell>        <mxCell id="XFiRcjkOXk-342" value="" style="rounded=0;whiteSpace=wrap;html=1;" parent="1" vertex="1">
          <mxGeometry x="620" y="5710" width="40" height="40" as="geometry" />
        </mxCell>        <mxCell id="XFiRcjkOXk-343" value="Функция связи кнопок сброса" style="text;html=1;align=center;verticalAlign=middle;whiteSpace=wrap;rounded=0;strokeColor=none;fillColor=default;" vertex="1" parent="1">
          <mxGeometry x="630" y="5709" width="160" height="42" as="geometry" />
        </mxCell>        <mxCell id="XFiRcjkOXk-344" value="" style="endArrow=none;html=1;rounded=0;" edge="1" parent="1">
          <mxGeometry width="50" height="50" relative="1" as="geometry">
            <mxPoint x="320" y="5730" as="sourcePoint" />
            <mxPoint x="360" y="5730" as="targetPoint" />
          </mxGeometry>
        </mxCell>        <mxCell id="XFiRcjkOXk-345" value="" style="endArrow=none;html=1;rounded=0;" edge="1" parent="1">
          <mxGeometry width="50" height="50" relative="1" as="geometry">
            <mxPoint x="520" y="5730" as="sourcePoint" />
            <mxPoint x="620" y="5730" as="targetPoint" />
          </mxGeometry>
        </mxCell>        <mxCell id="XFiRcjkOXk-346" value="Z_ALL" style="rounded=0;whiteSpace=wrap;html=1;" parent="1" vertex="1">
          <mxGeometry x="360" y="5920" width="160" height="40" as="geometry" />
        </mxCell>        <mxCell id="XFiRcjkOXk-347" value="" style="rounded=0;whiteSpace=wrap;html=1;" parent="1" vertex="1">
          <mxGeometry x="620" y="5920" width="40" height="40" as="geometry" />
        </mxCell>        <mxCell id="XFiRcjkOXk-348" value="Функция вызова всех защит" style="text;html=1;align=center;verticalAlign=middle;whiteSpace=wrap;rounded=0;strokeColor=none;fillColor=default;" vertex="1" parent="1">
          <mxGeometry x="630" y="5919" width="160" height="42" as="geometry" />
        </mxCell>        <mxCell id="XFiRcjkOXk-349" value="" style="endArrow=none;html=1;rounded=0;" edge="1" parent="1">
          <mxGeometry width="50" height="50" relative="1" as="geometry">
            <mxPoint x="320" y="5940" as="sourcePoint" />
            <mxPoint x="360" y="5940" as="targetPoint" />
          </mxGeometry>
        </mxCell>        <mxCell id="XFiRcjkOXk-350" value="" style="endArrow=none;html=1;rounded=0;" edge="1" parent="1">
          <mxGeometry width="50" height="50" relative="1" as="geometry">
            <mxPoint x="520" y="5940" as="sourcePoint" />
            <mxPoint x="620" y="5940" as="targetPoint" />
          </mxGeometry>
        </mxCell>        <mxCell id="XFiRcjkOXk-351" value="Z_GVS1_Otk" style="rounded=0;whiteSpace=wrap;html=1;" parent="1" vertex="1">
          <mxGeometry x="360" y="6000" width="160" height="40" as="geometry" />
        </mxCell>        <mxCell id="XFiRcjkOXk-352" value="" style="rounded=0;whiteSpace=wrap;html=1;" parent="1" vertex="1">
          <mxGeometry x="620" y="6000" width="40" height="40" as="geometry" />
        </mxCell>        <mxCell id="XFiRcjkOXk-353" value="Функция защиты отказа ГВС1" style="text;html=1;align=center;verticalAlign=middle;whiteSpace=wrap;rounded=0;strokeColor=none;fillColor=default;" vertex="1" parent="1">
          <mxGeometry x="630" y="5999" width="160" height="42" as="geometry" />
        </mxCell>        <mxCell id="XFiRcjkOXk-354" value="" style="endArrow=none;html=1;rounded=0;" edge="1" parent="1">
          <mxGeometry width="50" height="50" relative="1" as="geometry">
            <mxPoint x="320" y="6020" as="sourcePoint" />
            <mxPoint x="360" y="6020" as="targetPoint" />
          </mxGeometry>
        </mxCell>        <mxCell id="XFiRcjkOXk-355" value="" style="endArrow=none;html=1;rounded=0;" edge="1" parent="1">
          <mxGeometry width="50" height="50" relative="1" as="geometry">
            <mxPoint x="520" y="6020" as="sourcePoint" />
            <mxPoint x="620" y="6020" as="targetPoint" />
          </mxGeometry>
        </mxCell>        <mxCell id="XFiRcjkOXk-356" value="Z_MP1_Avar" style="rounded=0;whiteSpace=wrap;html=1;" parent="1" vertex="1">
          <mxGeometry x="360" y="6080" width="160" height="40" as="geometry" />
        </mxCell>        <mxCell id="XFiRcjkOXk-357" value="" style="rounded=0;whiteSpace=wrap;html=1;" parent="1" vertex="1">
          <mxGeometry x="620" y="6080" width="40" height="40" as="geometry" />
        </mxCell>        <mxCell id="XFiRcjkOXk-358" value="Функция защиты по аварии двигателя приточного вентилятора MP1" style="text;html=1;align=center;verticalAlign=middle;whiteSpace=wrap;rounded=0;strokeColor=none;fillColor=default;" vertex="1" parent="1">
          <mxGeometry x="630" y="6079" width="160" height="42" as="geometry" />
        </mxCell>        <mxCell id="XFiRcjkOXk-359" value="" style="endArrow=none;html=1;rounded=0;" edge="1" parent="1">
          <mxGeometry width="50" height="50" relative="1" as="geometry">
            <mxPoint x="320" y="6100" as="sourcePoint" />
            <mxPoint x="360" y="6100" as="targetPoint" />
          </mxGeometry>
        </mxCell>        <mxCell id="XFiRcjkOXk-360" value="" style="endArrow=none;html=1;rounded=0;" edge="1" parent="1">
          <mxGeometry width="50" height="50" relative="1" as="geometry">
            <mxPoint x="520" y="6100" as="sourcePoint" />
            <mxPoint x="620" y="6100" as="targetPoint" />
          </mxGeometry>
        </mxCell>        <mxCell id="XFiRcjkOXk-361" value="Z_MP1_NP" style="rounded=0;whiteSpace=wrap;html=1;" parent="1" vertex="1">
          <mxGeometry x="360" y="6160" width="160" height="40" as="geometry" />
        </mxCell>        <mxCell id="XFiRcjkOXk-362" value="" style="rounded=0;whiteSpace=wrap;html=1;" parent="1" vertex="1">
          <mxGeometry x="620" y="6160" width="40" height="40" as="geometry" />
        </mxCell>        <mxCell id="XFiRcjkOXk-363" value="Функция защиты отсутствия питания двигателя приточного вентилятора MP1" style="text;html=1;align=center;verticalAlign=middle;whiteSpace=wrap;rounded=0;strokeColor=none;fillColor=default;" vertex="1" parent="1">
          <mxGeometry x="630" y="6159" width="160" height="42" as="geometry" />
        </mxCell>        <mxCell id="XFiRcjkOXk-364" value="" style="endArrow=none;html=1;rounded=0;" edge="1" parent="1">
          <mxGeometry width="50" height="50" relative="1" as="geometry">
            <mxPoint x="320" y="6180" as="sourcePoint" />
            <mxPoint x="360" y="6180" as="targetPoint" />
          </mxGeometry>
        </mxCell>        <mxCell id="XFiRcjkOXk-365" value="" style="endArrow=none;html=1;rounded=0;" edge="1" parent="1">
          <mxGeometry width="50" height="50" relative="1" as="geometry">
            <mxPoint x="520" y="6180" as="sourcePoint" />
            <mxPoint x="620" y="6180" as="targetPoint" />
          </mxGeometry>
        </mxCell>        <mxCell id="XFiRcjkOXk-366" value="Z_MP1_Pereg" style="rounded=0;whiteSpace=wrap;html=1;" parent="1" vertex="1">
          <mxGeometry x="360" y="6240" width="160" height="40" as="geometry" />
        </mxCell>        <mxCell id="XFiRcjkOXk-367" value="" style="rounded=0;whiteSpace=wrap;html=1;" parent="1" vertex="1">
          <mxGeometry x="620" y="6240" width="40" height="40" as="geometry" />
        </mxCell>        <mxCell id="XFiRcjkOXk-368" value="Функция защиты перегрева двигателя приточного вентилятора MP1" style="text;html=1;align=center;verticalAlign=middle;whiteSpace=wrap;rounded=0;strokeColor=none;fillColor=default;" vertex="1" parent="1">
          <mxGeometry x="630" y="6239" width="160" height="42" as="geometry" />
        </mxCell>        <mxCell id="XFiRcjkOXk-369" value="" style="endArrow=none;html=1;rounded=0;" edge="1" parent="1">
          <mxGeometry width="50" height="50" relative="1" as="geometry">
            <mxPoint x="320" y="6260" as="sourcePoint" />
            <mxPoint x="360" y="6260" as="targetPoint" />
          </mxGeometry>
        </mxCell>        <mxCell id="XFiRcjkOXk-370" value="" style="endArrow=none;html=1;rounded=0;" edge="1" parent="1">
          <mxGeometry width="50" height="50" relative="1" as="geometry">
            <mxPoint x="520" y="6260" as="sourcePoint" />
            <mxPoint x="620" y="6260" as="targetPoint" />
          </mxGeometry>
        </mxCell>        <mxCell id="XFiRcjkOXk-371" value="Z_MRQ1_Avar" style="rounded=0;whiteSpace=wrap;html=1;" parent="1" vertex="1">
          <mxGeometry x="360" y="6320" width="160" height="40" as="geometry" />
        </mxCell>        <mxCell id="XFiRcjkOXk-372" value="" style="rounded=0;whiteSpace=wrap;html=1;" parent="1" vertex="1">
          <mxGeometry x="620" y="6320" width="40" height="40" as="geometry" />
        </mxCell>        <mxCell id="XFiRcjkOXk-373" value="Функция защиты рекуператора RQ1 по аварии" style="text;html=1;align=center;verticalAlign=middle;whiteSpace=wrap;rounded=0;strokeColor=none;fillColor=default;" vertex="1" parent="1">
          <mxGeometry x="630" y="6319" width="160" height="42" as="geometry" />
        </mxCell>        <mxCell id="XFiRcjkOXk-374" value="" style="endArrow=none;html=1;rounded=0;" edge="1" parent="1">
          <mxGeometry width="50" height="50" relative="1" as="geometry">
            <mxPoint x="320" y="6340" as="sourcePoint" />
            <mxPoint x="360" y="6340" as="targetPoint" />
          </mxGeometry>
        </mxCell>        <mxCell id="XFiRcjkOXk-375" value="" style="endArrow=none;html=1;rounded=0;" edge="1" parent="1">
          <mxGeometry width="50" height="50" relative="1" as="geometry">
            <mxPoint x="520" y="6340" as="sourcePoint" />
            <mxPoint x="620" y="6340" as="targetPoint" />
          </mxGeometry>
        </mxCell>        <mxCell id="XFiRcjkOXk-376" value="Z_MRQ1_NP" style="rounded=0;whiteSpace=wrap;html=1;" parent="1" vertex="1">
          <mxGeometry x="360" y="6400" width="160" height="40" as="geometry" />
        </mxCell>        <mxCell id="XFiRcjkOXk-377" value="" style="rounded=0;whiteSpace=wrap;html=1;" parent="1" vertex="1">
          <mxGeometry x="620" y="6400" width="40" height="40" as="geometry" />
        </mxCell>        <mxCell id="XFiRcjkOXk-378" value="Функция защиты рекуператора RQ1 нет питания" style="text;html=1;align=center;verticalAlign=middle;whiteSpace=wrap;rounded=0;strokeColor=none;fillColor=default;" vertex="1" parent="1">
          <mxGeometry x="630" y="6399" width="160" height="42" as="geometry" />
        </mxCell>        <mxCell id="XFiRcjkOXk-379" value="" style="endArrow=none;html=1;rounded=0;" edge="1" parent="1">
          <mxGeometry width="50" height="50" relative="1" as="geometry">
            <mxPoint x="320" y="6420" as="sourcePoint" />
            <mxPoint x="360" y="6420" as="targetPoint" />
          </mxGeometry>
        </mxCell>        <mxCell id="XFiRcjkOXk-380" value="" style="endArrow=none;html=1;rounded=0;" edge="1" parent="1">
          <mxGeometry width="50" height="50" relative="1" as="geometry">
            <mxPoint x="520" y="6420" as="sourcePoint" />
            <mxPoint x="620" y="6420" as="targetPoint" />
          </mxGeometry>
        </mxCell>        <mxCell id="XFiRcjkOXk-381" value="Z_MV1_Avar" style="rounded=0;whiteSpace=wrap;html=1;" parent="1" vertex="1">
          <mxGeometry x="360" y="6480" width="160" height="40" as="geometry" />
        </mxCell>        <mxCell id="XFiRcjkOXk-382" value="" style="rounded=0;whiteSpace=wrap;html=1;" parent="1" vertex="1">
          <mxGeometry x="620" y="6480" width="40" height="40" as="geometry" />
        </mxCell>        <mxCell id="XFiRcjkOXk-383" value="Функция защиты по аварии двигателя вытяжного вентилятора MV1" style="text;html=1;align=center;verticalAlign=middle;whiteSpace=wrap;rounded=0;strokeColor=none;fillColor=default;" vertex="1" parent="1">
          <mxGeometry x="630" y="6479" width="160" height="42" as="geometry" />
        </mxCell>        <mxCell id="XFiRcjkOXk-384" value="" style="endArrow=none;html=1;rounded=0;" edge="1" parent="1">
          <mxGeometry width="50" height="50" relative="1" as="geometry">
            <mxPoint x="320" y="6500" as="sourcePoint" />
            <mxPoint x="360" y="6500" as="targetPoint" />
          </mxGeometry>
        </mxCell>        <mxCell id="XFiRcjkOXk-385" value="" style="endArrow=none;html=1;rounded=0;" edge="1" parent="1">
          <mxGeometry width="50" height="50" relative="1" as="geometry">
            <mxPoint x="520" y="6500" as="sourcePoint" />
            <mxPoint x="620" y="6500" as="targetPoint" />
          </mxGeometry>
        </mxCell>        <mxCell id="XFiRcjkOXk-386" value="Z_MV1_NP" style="rounded=0;whiteSpace=wrap;html=1;" parent="1" vertex="1">
          <mxGeometry x="360" y="6560" width="160" height="40" as="geometry" />
        </mxCell>        <mxCell id="XFiRcjkOXk-387" value="" style="rounded=0;whiteSpace=wrap;html=1;" parent="1" vertex="1">
          <mxGeometry x="620" y="6560" width="40" height="40" as="geometry" />
        </mxCell>        <mxCell id="XFiRcjkOXk-388" value="Функция защиты отсутствия питания двигателя вытяжного вентилятора MV1" style="text;html=1;align=center;verticalAlign=middle;whiteSpace=wrap;rounded=0;strokeColor=none;fillColor=default;" vertex="1" parent="1">
          <mxGeometry x="630" y="6559" width="160" height="42" as="geometry" />
        </mxCell>        <mxCell id="XFiRcjkOXk-389" value="" style="endArrow=none;html=1;rounded=0;" edge="1" parent="1">
          <mxGeometry width="50" height="50" relative="1" as="geometry">
            <mxPoint x="320" y="6580" as="sourcePoint" />
            <mxPoint x="360" y="6580" as="targetPoint" />
          </mxGeometry>
        </mxCell>        <mxCell id="XFiRcjkOXk-390" value="" style="endArrow=none;html=1;rounded=0;" edge="1" parent="1">
          <mxGeometry width="50" height="50" relative="1" as="geometry">
            <mxPoint x="520" y="6580" as="sourcePoint" />
            <mxPoint x="620" y="6580" as="targetPoint" />
          </mxGeometry>
        </mxCell>        <mxCell id="XFiRcjkOXk-391" value="Z_MV1_Pereg" style="rounded=0;whiteSpace=wrap;html=1;" parent="1" vertex="1">
          <mxGeometry x="360" y="6640" width="160" height="40" as="geometry" />
        </mxCell>        <mxCell id="XFiRcjkOXk-392" value="" style="rounded=0;whiteSpace=wrap;html=1;" parent="1" vertex="1">
          <mxGeometry x="620" y="6640" width="40" height="40" as="geometry" />
        </mxCell>        <mxCell id="XFiRcjkOXk-393" value="Функция защиты перегрева двигателя вытяжного вентилятора MV1" style="text;html=1;align=center;verticalAlign=middle;whiteSpace=wrap;rounded=0;strokeColor=none;fillColor=default;" vertex="1" parent="1">
          <mxGeometry x="630" y="6639" width="160" height="42" as="geometry" />
        </mxCell>        <mxCell id="XFiRcjkOXk-394" value="" style="endArrow=none;html=1;rounded=0;" edge="1" parent="1">
          <mxGeometry width="50" height="50" relative="1" as="geometry">
            <mxPoint x="320" y="6660" as="sourcePoint" />
            <mxPoint x="360" y="6660" as="targetPoint" />
          </mxGeometry>
        </mxCell>        <mxCell id="XFiRcjkOXk-395" value="" style="endArrow=none;html=1;rounded=0;" edge="1" parent="1">
          <mxGeometry width="50" height="50" relative="1" as="geometry">
            <mxPoint x="520" y="6660" as="sourcePoint" />
            <mxPoint x="620" y="6660" as="targetPoint" />
          </mxGeometry>
        </mxCell>        <mxCell id="XFiRcjkOXk-396" value="Z_NET_VKH_NAPR" style="rounded=0;whiteSpace=wrap;html=1;" parent="1" vertex="1">
          <mxGeometry x="360" y="6720" width="160" height="40" as="geometry" />
        </mxCell>        <mxCell id="XFiRcjkOXk-397" value="" style="rounded=0;whiteSpace=wrap;html=1;" parent="1" vertex="1">
          <mxGeometry x="620" y="6720" width="40" height="40" as="geometry" />
        </mxCell>        <mxCell id="XFiRcjkOXk-398" value="Функция защиты нет входного напряжения" style="text;html=1;align=center;verticalAlign=middle;whiteSpace=wrap;rounded=0;strokeColor=none;fillColor=default;" vertex="1" parent="1">
          <mxGeometry x="630" y="6719" width="160" height="42" as="geometry" />
        </mxCell>        <mxCell id="XFiRcjkOXk-399" value="" style="endArrow=none;html=1;rounded=0;" edge="1" parent="1">
          <mxGeometry width="50" height="50" relative="1" as="geometry">
            <mxPoint x="320" y="6740" as="sourcePoint" />
            <mxPoint x="360" y="6740" as="targetPoint" />
          </mxGeometry>
        </mxCell>        <mxCell id="XFiRcjkOXk-400" value="" style="endArrow=none;html=1;rounded=0;" edge="1" parent="1">
          <mxGeometry width="50" height="50" relative="1" as="geometry">
            <mxPoint x="520" y="6740" as="sourcePoint" />
            <mxPoint x="620" y="6740" as="targetPoint" />
          </mxGeometry>
        </mxCell>        <mxCell id="XFiRcjkOXk-401" value="Z_NP_MP1" style="rounded=0;whiteSpace=wrap;html=1;" parent="1" vertex="1">
          <mxGeometry x="360" y="6800" width="160" height="40" as="geometry" />
        </mxCell>        <mxCell id="XFiRcjkOXk-402" value="" style="rounded=0;whiteSpace=wrap;html=1;" parent="1" vertex="1">
          <mxGeometry x="620" y="6800" width="40" height="40" as="geometry" />
        </mxCell>        <mxCell id="XFiRcjkOXk-403" value="Функция защиты отсутствия перепада давления на приточном вентиляторе MP1" style="text;html=1;align=center;verticalAlign=middle;whiteSpace=wrap;rounded=0;strokeColor=none;fillColor=default;" vertex="1" parent="1">
          <mxGeometry x="630" y="6799" width="160" height="42" as="geometry" />
        </mxCell>        <mxCell id="XFiRcjkOXk-404" value="" style="endArrow=none;html=1;rounded=0;" edge="1" parent="1">
          <mxGeometry width="50" height="50" relative="1" as="geometry">
            <mxPoint x="320" y="6820" as="sourcePoint" />
            <mxPoint x="360" y="6820" as="targetPoint" />
          </mxGeometry>
        </mxCell>        <mxCell id="XFiRcjkOXk-405" value="" style="endArrow=none;html=1;rounded=0;" edge="1" parent="1">
          <mxGeometry width="50" height="50" relative="1" as="geometry">
            <mxPoint x="520" y="6820" as="sourcePoint" />
            <mxPoint x="620" y="6820" as="targetPoint" />
          </mxGeometry>
        </mxCell>        <mxCell id="XFiRcjkOXk-406" value="Z_NP_MRQ1" style="rounded=0;whiteSpace=wrap;html=1;" parent="1" vertex="1">
          <mxGeometry x="360" y="6880" width="160" height="40" as="geometry" />
        </mxCell>        <mxCell id="XFiRcjkOXk-407" value="" style="rounded=0;whiteSpace=wrap;html=1;" parent="1" vertex="1">
          <mxGeometry x="620" y="6880" width="40" height="40" as="geometry" />
        </mxCell>        <mxCell id="XFiRcjkOXk-408" value="Функция защиты отсутствия перепада давления на рекуператоре RQ1" style="text;html=1;align=center;verticalAlign=middle;whiteSpace=wrap;rounded=0;strokeColor=none;fillColor=default;" vertex="1" parent="1">
          <mxGeometry x="630" y="6879" width="160" height="42" as="geometry" />
        </mxCell>        <mxCell id="XFiRcjkOXk-409" value="" style="endArrow=none;html=1;rounded=0;" edge="1" parent="1">
          <mxGeometry width="50" height="50" relative="1" as="geometry">
            <mxPoint x="320" y="6900" as="sourcePoint" />
            <mxPoint x="360" y="6900" as="targetPoint" />
          </mxGeometry>
        </mxCell>        <mxCell id="XFiRcjkOXk-410" value="" style="endArrow=none;html=1;rounded=0;" edge="1" parent="1">
          <mxGeometry width="50" height="50" relative="1" as="geometry">
            <mxPoint x="520" y="6900" as="sourcePoint" />
            <mxPoint x="620" y="6900" as="targetPoint" />
          </mxGeometry>
        </mxCell>        <mxCell id="XFiRcjkOXk-411" value="Z_NP_MV1" style="rounded=0;whiteSpace=wrap;html=1;" parent="1" vertex="1">
          <mxGeometry x="360" y="7090" width="160" height="40" as="geometry" />
        </mxCell>        <mxCell id="XFiRcjkOXk-412" value="" style="rounded=0;whiteSpace=wrap;html=1;" parent="1" vertex="1">
          <mxGeometry x="620" y="7090" width="40" height="40" as="geometry" />
        </mxCell>        <mxCell id="XFiRcjkOXk-413" value="Функция защиты отсутствия перепада давления на вытяжном вентиляторе MV1" style="text;html=1;align=center;verticalAlign=middle;whiteSpace=wrap;rounded=0;strokeColor=none;fillColor=default;" vertex="1" parent="1">
          <mxGeometry x="630" y="7089" width="160" height="42" as="geometry" />
        </mxCell>        <mxCell id="XFiRcjkOXk-414" value="" style="endArrow=none;html=1;rounded=0;" edge="1" parent="1">
          <mxGeometry width="50" height="50" relative="1" as="geometry">
            <mxPoint x="320" y="7110" as="sourcePoint" />
            <mxPoint x="360" y="7110" as="targetPoint" />
          </mxGeometry>
        </mxCell>        <mxCell id="XFiRcjkOXk-415" value="" style="endArrow=none;html=1;rounded=0;" edge="1" parent="1">
          <mxGeometry width="50" height="50" relative="1" as="geometry">
            <mxPoint x="520" y="7110" as="sourcePoint" />
            <mxPoint x="620" y="7110" as="targetPoint" />
          </mxGeometry>
        </mxCell>        <mxCell id="XFiRcjkOXk-416" value="Z_OTKAZ_VTOR_ZEP" style="rounded=0;whiteSpace=wrap;html=1;" parent="1" vertex="1">
          <mxGeometry x="360" y="7170" width="160" height="40" as="geometry" />
        </mxCell>        <mxCell id="XFiRcjkOXk-417" value="" style="rounded=0;whiteSpace=wrap;html=1;" parent="1" vertex="1">
          <mxGeometry x="620" y="7170" width="40" height="40" as="geometry" />
        </mxCell>        <mxCell id="XFiRcjkOXk-418" value="Функция защиты отказа вторичных цепей" style="text;html=1;align=center;verticalAlign=middle;whiteSpace=wrap;rounded=0;strokeColor=none;fillColor=default;" vertex="1" parent="1">
          <mxGeometry x="630" y="7169" width="160" height="42" as="geometry" />
        </mxCell>        <mxCell id="XFiRcjkOXk-419" value="" style="endArrow=none;html=1;rounded=0;" edge="1" parent="1">
          <mxGeometry width="50" height="50" relative="1" as="geometry">
            <mxPoint x="320" y="7190" as="sourcePoint" />
            <mxPoint x="360" y="7190" as="targetPoint" />
          </mxGeometry>
        </mxCell>        <mxCell id="XFiRcjkOXk-420" value="" style="endArrow=none;html=1;rounded=0;" edge="1" parent="1">
          <mxGeometry width="50" height="50" relative="1" as="geometry">
            <mxPoint x="520" y="7190" as="sourcePoint" />
            <mxPoint x="620" y="7190" as="targetPoint" />
          </mxGeometry>
        </mxCell>        <mxCell id="XFiRcjkOXk-421" value="Z_P1_NP" style="rounded=0;whiteSpace=wrap;html=1;" parent="1" vertex="1">
          <mxGeometry x="360" y="7250" width="160" height="40" as="geometry" />
        </mxCell>        <mxCell id="XFiRcjkOXk-422" value="" style="rounded=0;whiteSpace=wrap;html=1;" parent="1" vertex="1">
          <mxGeometry x="620" y="7250" width="40" height="40" as="geometry" />
        </mxCell>        <mxCell id="XFiRcjkOXk-423" value="Функция защиты по отсутствию питания насоса P1" style="text;html=1;align=center;verticalAlign=middle;whiteSpace=wrap;rounded=0;strokeColor=none;fillColor=default;" vertex="1" parent="1">
          <mxGeometry x="630" y="7249" width="160" height="42" as="geometry" />
        </mxCell>        <mxCell id="XFiRcjkOXk-424" value="" style="endArrow=none;html=1;rounded=0;" edge="1" parent="1">
          <mxGeometry width="50" height="50" relative="1" as="geometry">
            <mxPoint x="320" y="7270" as="sourcePoint" />
            <mxPoint x="360" y="7270" as="targetPoint" />
          </mxGeometry>
        </mxCell>        <mxCell id="XFiRcjkOXk-425" value="" style="endArrow=none;html=1;rounded=0;" edge="1" parent="1">
          <mxGeometry width="50" height="50" relative="1" as="geometry">
            <mxPoint x="520" y="7270" as="sourcePoint" />
            <mxPoint x="620" y="7270" as="targetPoint" />
          </mxGeometry>
        </mxCell>        <mxCell id="XFiRcjkOXk-426" value="Z_Pozhar" style="rounded=0;whiteSpace=wrap;html=1;" parent="1" vertex="1">
          <mxGeometry x="360" y="7330" width="160" height="40" as="geometry" />
        </mxCell>        <mxCell id="XFiRcjkOXk-427" value="" style="rounded=0;whiteSpace=wrap;html=1;" parent="1" vertex="1">
          <mxGeometry x="620" y="7330" width="40" height="40" as="geometry" />
        </mxCell>        <mxCell id="XFiRcjkOXk-428" value="Функция защиты по сигналу пожар" style="text;html=1;align=center;verticalAlign=middle;whiteSpace=wrap;rounded=0;strokeColor=none;fillColor=default;" vertex="1" parent="1">
          <mxGeometry x="630" y="7329" width="160" height="42" as="geometry" />
        </mxCell>        <mxCell id="XFiRcjkOXk-429" value="" style="endArrow=none;html=1;rounded=0;" edge="1" parent="1">
          <mxGeometry width="50" height="50" relative="1" as="geometry">
            <mxPoint x="320" y="7350" as="sourcePoint" />
            <mxPoint x="360" y="7350" as="targetPoint" />
          </mxGeometry>
        </mxCell>        <mxCell id="XFiRcjkOXk-430" value="" style="endArrow=none;html=1;rounded=0;" edge="1" parent="1">
          <mxGeometry width="50" height="50" relative="1" as="geometry">
            <mxPoint x="520" y="7350" as="sourcePoint" />
            <mxPoint x="620" y="7350" as="targetPoint" />
          </mxGeometry>
        </mxCell>        <mxCell id="XFiRcjkOXk-431" value="Z_YA1_Otk" style="rounded=0;whiteSpace=wrap;html=1;" parent="1" vertex="1">
          <mxGeometry x="360" y="7410" width="160" height="40" as="geometry" />
        </mxCell>        <mxCell id="XFiRcjkOXk-432" value="" style="rounded=0;whiteSpace=wrap;html=1;" parent="1" vertex="1">
          <mxGeometry x="620" y="7410" width="40" height="40" as="geometry" />
        </mxCell>        <mxCell id="XFiRcjkOXk-433" value="Функция защиты по отказу клапана YA1" style="text;html=1;align=center;verticalAlign=middle;whiteSpace=wrap;rounded=0;strokeColor=none;fillColor=default;" vertex="1" parent="1">
          <mxGeometry x="630" y="7409" width="160" height="42" as="geometry" />
        </mxCell>        <mxCell id="XFiRcjkOXk-434" value="" style="endArrow=none;html=1;rounded=0;" edge="1" parent="1">
          <mxGeometry width="50" height="50" relative="1" as="geometry">
            <mxPoint x="320" y="7430" as="sourcePoint" />
            <mxPoint x="360" y="7430" as="targetPoint" />
          </mxGeometry>
        </mxCell>        <mxCell id="XFiRcjkOXk-435" value="" style="endArrow=none;html=1;rounded=0;" edge="1" parent="1">
          <mxGeometry width="50" height="50" relative="1" as="geometry">
            <mxPoint x="520" y="7430" as="sourcePoint" />
            <mxPoint x="620" y="7430" as="targetPoint" />
          </mxGeometry>
        </mxCell>        <mxCell id="XFiRcjkOXk-436" value="Z_YA2_Otk" style="rounded=0;whiteSpace=wrap;html=1;" parent="1" vertex="1">
          <mxGeometry x="360" y="7490" width="160" height="40" as="geometry" />
        </mxCell>        <mxCell id="XFiRcjkOXk-437" value="" style="rounded=0;whiteSpace=wrap;html=1;" parent="1" vertex="1">
          <mxGeometry x="620" y="7490" width="40" height="40" as="geometry" />
        </mxCell>        <mxCell id="XFiRcjkOXk-438" value="Функция защиты по отказу клапана YA2" style="text;html=1;align=center;verticalAlign=middle;whiteSpace=wrap;rounded=0;strokeColor=none;fillColor=default;" vertex="1" parent="1">
          <mxGeometry x="630" y="7489" width="160" height="42" as="geometry" />
        </mxCell>        <mxCell id="XFiRcjkOXk-439" value="" style="endArrow=none;html=1;rounded=0;" edge="1" parent="1">
          <mxGeometry width="50" height="50" relative="1" as="geometry">
            <mxPoint x="320" y="7510" as="sourcePoint" />
            <mxPoint x="360" y="7510" as="targetPoint" />
          </mxGeometry>
        </mxCell>        <mxCell id="XFiRcjkOXk-440" value="" style="endArrow=none;html=1;rounded=0;" edge="1" parent="1">
          <mxGeometry width="50" height="50" relative="1" as="geometry">
            <mxPoint x="520" y="7510" as="sourcePoint" />
            <mxPoint x="620" y="7510" as="targetPoint" />
          </mxGeometry>
        </mxCell>        <mxCell id="XFiRcjkOXk-441" value="Z_YA3_Otk" style="rounded=0;whiteSpace=wrap;html=1;" parent="1" vertex="1">
          <mxGeometry x="360" y="7570" width="160" height="40" as="geometry" />
        </mxCell>        <mxCell id="XFiRcjkOXk-442" value="" style="rounded=0;whiteSpace=wrap;html=1;" parent="1" vertex="1">
          <mxGeometry x="620" y="7570" width="40" height="40" as="geometry" />
        </mxCell>        <mxCell id="XFiRcjkOXk-443" value="Функция защиты по отказу клапана YA3" style="text;html=1;align=center;verticalAlign=middle;whiteSpace=wrap;rounded=0;strokeColor=none;fillColor=default;" vertex="1" parent="1">
          <mxGeometry x="630" y="7569" width="160" height="42" as="geometry" />
        </mxCell>        <mxCell id="XFiRcjkOXk-444" value="" style="endArrow=none;html=1;rounded=0;" edge="1" parent="1">
          <mxGeometry width="50" height="50" relative="1" as="geometry">
            <mxPoint x="320" y="7590" as="sourcePoint" />
            <mxPoint x="360" y="7590" as="targetPoint" />
          </mxGeometry>
        </mxCell>        <mxCell id="XFiRcjkOXk-445" value="" style="endArrow=none;html=1;rounded=0;" edge="1" parent="1">
          <mxGeometry width="50" height="50" relative="1" as="geometry">
            <mxPoint x="520" y="7590" as="sourcePoint" />
            <mxPoint x="620" y="7590" as="targetPoint" />
          </mxGeometry>
        </mxCell>        <mxCell id="XFiRcjkOXk-446" value="Z_YA4_Otk" style="rounded=0;whiteSpace=wrap;html=1;" parent="1" vertex="1">
          <mxGeometry x="360" y="7650" width="160" height="40" as="geometry" />
        </mxCell>        <mxCell id="XFiRcjkOXk-447" value="" style="rounded=0;whiteSpace=wrap;html=1;" parent="1" vertex="1">
          <mxGeometry x="620" y="7650" width="40" height="40" as="geometry" />
        </mxCell>        <mxCell id="XFiRcjkOXk-448" value="Функция защиты по отказу клапана YA4" style="text;html=1;align=center;verticalAlign=middle;whiteSpace=wrap;rounded=0;strokeColor=none;fillColor=default;" vertex="1" parent="1">
          <mxGeometry x="630" y="7649" width="160" height="42" as="geometry" />
        </mxCell>        <mxCell id="XFiRcjkOXk-449" value="" style="endArrow=none;html=1;rounded=0;" edge="1" parent="1">
          <mxGeometry width="50" height="50" relative="1" as="geometry">
            <mxPoint x="320" y="7670" as="sourcePoint" />
            <mxPoint x="360" y="7670" as="targetPoint" />
          </mxGeometry>
        </mxCell>        <mxCell id="XFiRcjkOXk-450" value="" style="endArrow=none;html=1;rounded=0;" edge="1" parent="1">
          <mxGeometry width="50" height="50" relative="1" as="geometry">
            <mxPoint x="520" y="7670" as="sourcePoint" />
            <mxPoint x="620" y="7670" as="targetPoint" />
          </mxGeometry>
        </mxCell>        <mxCell id="XFiRcjkOXk-451" value="Z_Zam" style="rounded=0;whiteSpace=wrap;html=1;" parent="1" vertex="1">
          <mxGeometry x="360" y="7730" width="160" height="40" as="geometry" />
        </mxCell>        <mxCell id="XFiRcjkOXk-452" value="" style="rounded=0;whiteSpace=wrap;html=1;" parent="1" vertex="1">
          <mxGeometry x="620" y="7730" width="40" height="40" as="geometry" />
        </mxCell>        <mxCell id="XFiRcjkOXk-453" value="Функция защиты по заморозке" style="text;html=1;align=center;verticalAlign=middle;whiteSpace=wrap;rounded=0;strokeColor=none;fillColor=default;" vertex="1" parent="1">
          <mxGeometry x="630" y="7729" width="160" height="42" as="geometry" />
        </mxCell>        <mxCell id="XFiRcjkOXk-454" value="" style="endArrow=none;html=1;rounded=0;" edge="1" parent="1">
          <mxGeometry width="50" height="50" relative="1" as="geometry">
            <mxPoint x="320" y="7750" as="sourcePoint" />
            <mxPoint x="360" y="7750" as="targetPoint" />
          </mxGeometry>
        </mxCell>        <mxCell id="XFiRcjkOXk-455" value="" style="endArrow=none;html=1;rounded=0;" edge="1" parent="1">
          <mxGeometry width="50" height="50" relative="1" as="geometry">
            <mxPoint x="520" y="7750" as="sourcePoint" />
            <mxPoint x="620" y="7750" as="targetPoint" />
          </mxGeometry>
        </mxCell>        <mxCell id="XFiRcjkOXk-456" value="" style="endArrow=none;html=1;rounded=0;" edge="1" parent="1">
          <mxGeometry width="50" height="50" relative="1" as="geometry">
            <mxPoint x="320" y="5590" as="sourcePoint" />
            <mxPoint x="320" y="5760" as="targetPoint" />
          </mxGeometry>
        </mxCell>        <mxCell id="XFiRcjkOXk-457" value="6" style="ellipse;whiteSpace=wrap;html=1;aspect=fixed;" vertex="1" parent="1">
          <mxGeometry x="300" y="5760" width="40" height="40" as="geometry" />
        </mxCell>        <mxCell id="XFiRcjkOXk-458" value="6" style="ellipse;whiteSpace=wrap;html=1;aspect=fixed;" vertex="1" parent="1">
          <mxGeometry x="300" y="5880" width="40" height="40" as="geometry" />
        </mxCell>        <mxCell id="XFiRcjkOXk-459" value="" style="endArrow=none;html=1;rounded=0;" edge="1" parent="1">
          <mxGeometry width="50" height="50" relative="1" as="geometry">
            <mxPoint x="320" y="5920" as="sourcePoint" />
            <mxPoint x="320" y="6930" as="targetPoint" />
          </mxGeometry>
        </mxCell>        <mxCell id="XFiRcjkOXk-460" value="7" style="ellipse;whiteSpace=wrap;html=1;aspect=fixed;" vertex="1" parent="1">
          <mxGeometry x="300" y="6930" width="40" height="40" as="geometry" />
        </mxCell>        <mxCell id="XFiRcjkOXk-461" value="7" style="ellipse;whiteSpace=wrap;html=1;aspect=fixed;" vertex="1" parent="1">
          <mxGeometry x="300" y="7050" width="40" height="40" as="geometry" />
        </mxCell>        <mxCell id="XFiRcjkOXk-462" value="" style="endArrow=none;html=1;rounded=0;" edge="1" parent="1">
          <mxGeometry width="50" height="50" relative="1" as="geometry">
            <mxPoint x="320" y="7090" as="sourcePoint" />
            <mxPoint x="320" y="7750" as="targetPoint" />
          </mxGeometry>
        </mxCell>        <mxCell id="XFiRcjkOXk-463" value="" style="endArrow=none;html=1;rounded=0;" edge="1" parent="1">
          <mxGeometry width="50" height="50" relative="1" as="geometry">
            <mxPoint x="200" y="5030" as="sourcePoint" />
            <mxPoint x="200" y="5570" as="targetPoint" />
          </mxGeometry>
        </mxCell>        <mxCell id="XFiRcjkOXk-464" value="" style="endArrow=none;html=1;rounded=0;" edge="1" parent="1">
          <mxGeometry width="50" height="50" relative="1" as="geometry">
            <mxPoint x="80" y="80" as="sourcePoint" />
            <mxPoint x="80" y="1080" as="targetPoint" />
          </mxGeometry>
        </mxCell>        <mxCell id="XFiRcjkOXk-465" value="8" style="ellipse;whiteSpace=wrap;html=1;aspect=fixed;" vertex="1" parent="1">
          <mxGeometry x="60" y="1080" width="40" height="40" as="geometry" />
        </mxCell>        <mxCell id="XFiRcjkOXk-466" value="8" style="ellipse;whiteSpace=wrap;html=1;aspect=fixed;" vertex="1" parent="1">
          <mxGeometry x="60" y="1200" width="40" height="40" as="geometry" />
        </mxCell>        <mxCell id="XFiRcjkOXk-467" value="" style="endArrow=none;html=1;rounded=0;" edge="1" parent="1">
          <mxGeometry width="50" height="50" relative="1" as="geometry">
            <mxPoint x="80" y="1240" as="sourcePoint" />
            <mxPoint x="80" y="2250" as="targetPoint" />
          </mxGeometry>
        </mxCell>        <mxCell id="XFiRcjkOXk-468" value="9" style="ellipse;whiteSpace=wrap;html=1;aspect=fixed;" vertex="1" parent="1">
          <mxGeometry x="60" y="2250" width="40" height="40" as="geometry" />
        </mxCell>        <mxCell id="XFiRcjkOXk-469" value="9" style="ellipse;whiteSpace=wrap;html=1;aspect=fixed;" vertex="1" parent="1">
          <mxGeometry x="60" y="2370" width="40" height="40" as="geometry" />
        </mxCell>        <mxCell id="XFiRcjkOXk-470" value="" style="endArrow=none;html=1;rounded=0;" edge="1" parent="1">
          <mxGeometry width="50" height="50" relative="1" as="geometry">
            <mxPoint x="80" y="2410" as="sourcePoint" />
            <mxPoint x="80" y="3420" as="targetPoint" />
          </mxGeometry>
        </mxCell>        <mxCell id="XFiRcjkOXk-471" value="10" style="ellipse;whiteSpace=wrap;html=1;aspect=fixed;" vertex="1" parent="1">
          <mxGeometry x="60" y="3420" width="40" height="40" as="geometry" />
        </mxCell>        <mxCell id="XFiRcjkOXk-472" value="10" style="ellipse;whiteSpace=wrap;html=1;aspect=fixed;" vertex="1" parent="1">
          <mxGeometry x="60" y="3540" width="40" height="40" as="geometry" />
        </mxCell>        <mxCell id="XFiRcjkOXk-473" value="" style="endArrow=none;html=1;rounded=0;" edge="1" parent="1">
          <mxGeometry width="50" height="50" relative="1" as="geometry">
            <mxPoint x="80" y="3580" as="sourcePoint" />
            <mxPoint x="80" y="4590" as="targetPoint" />
          </mxGeometry>
        </mxCell>        <mxCell id="XFiRcjkOXk-474" value="11" style="ellipse;whiteSpace=wrap;html=1;aspect=fixed;" vertex="1" parent="1">
          <mxGeometry x="60" y="4590" width="40" height="40" as="geometry" />
        </mxCell>        <mxCell id="XFiRcjkOXk-475" value="11" style="ellipse;whiteSpace=wrap;html=1;aspect=fixed;" vertex="1" parent="1">
          <mxGeometry x="60" y="4710" width="40" height="40" as="geometry" />
        </mxCell>        <mxCell id="XFiRcjkOXk-476" value="" style="endArrow=none;html=1;rounded=0;" edge="1" parent="1">
          <mxGeometry width="50" height="50" relative="1" as="geometry">
            <mxPoint x="80" y="4750" as="sourcePoint" />
            <mxPoint x="80" y="5010" as="targetPoint" />
          </mxGeometry>
        </mxCell>      </root>
    </mxGraphModel>
  </diagram>
</mxfile>
